<?xml version="1.0" encoding="us-ascii" standalone="no"?><svg xmlns="http://www.w3.org/2000/svg" xmlns:xlink="http://www.w3.org/1999/xlink" contentStyleType="text/css" height="670px" preserveAspectRatio="none" style="width:1997px;height:670px;background:#FFFFFF;" version="1.1" viewBox="0 0 1997 670" width="1997px" zoomAndPan="magnify"><defs/><g><ellipse cx="1025" cy="20" fill="#222222" rx="10" ry="10" style="stroke:#222222;stroke-width:1.0;"/><rect fill="#F1F1F1" height="33.9688" rx="12.5" ry="12.5" style="stroke:#181818;stroke-width:0.5;" width="127" x="961.5" y="50"/><text fill="#000000" font-family="sans-serif" font-size="12" lengthAdjust="spacing" textLength="107" x="971.5" y="71.1387">Read voltage_mV</text><rect fill="#F1F1F1" height="33.9688" rx="12.5" ry="12.5" style="stroke:#181818;stroke-width:0.5;" width="351" x="849.5" y="103.9688"/><text fill="#000000" font-family="sans-serif" font-size="12" lengthAdjust="spacing" textLength="331" x="859.5" y="125.1074">Read thresholds: underOn, underOff, overOn, overOff</text><polygon fill="#F1F1F1" points="382.5,157.9375,483.5,157.9375,495.5,169.9375,483.5,181.9375,382.5,181.9375,370.5,169.9375,382.5,157.9375" style="stroke:#181818;stroke-width:0.5;"/><text fill="#000000" font-family="sans-serif" font-size="11" lengthAdjust="spacing" textLength="46" x="437" y="192.1479">NORMAL</text><text fill="#000000" font-family="sans-serif" font-size="11" lengthAdjust="spacing" textLength="101" x="382.5" y="173.7456">state == NORMAL</text><rect fill="#F1F1F1" height="33.9688" rx="12.5" ry="12.5" style="stroke:#181818;stroke-width:0.5;" width="171" x="347.5" y="213.6479"/><text fill="#000000" font-family="sans-serif" font-size="12" lengthAdjust="spacing" textLength="151" x="357.5" y="234.7866">Reset deactivationTimer</text><polygon fill="#F1F1F1" points="66,292.6167,206,292.6167,218,304.6167,206,316.6167,66,316.6167,54,304.6167,66,292.6167" style="stroke:#181818;stroke-width:0.5;"/><text fill="#000000" font-family="sans-serif" font-size="11" lengthAdjust="spacing" textLength="36" x="140" y="326.8271">UV ON</text><text fill="#000000" font-family="sans-serif" font-size="11" lengthAdjust="spacing" textLength="140" x="66" y="308.4248">voltage_mV &lt;= underOn</text><rect fill="#F1F1F1" height="47.9375" rx="12.5" ry="12.5" style="stroke:#181818;stroke-width:0.5;" width="198" x="37" y="349.4214"/><text fill="#000000" font-family="sans-serif" font-size="12" lengthAdjust="spacing" textLength="178" x="47" y="370.5601">uvActivationTimer += dt_ms;</text><text fill="#000000" font-family="sans-serif" font-size="12" lengthAdjust="spacing" textLength="135" x="47" y="384.5288">ovActivationTimer = 0</text><rect fill="#F1F1F1" height="47.9375" rx="12.5" ry="12.5" style="stroke:#181818;stroke-width:0.5;" width="173" x="49.5" y="480.7612"/><text fill="#000000" font-family="sans-serif" font-size="12" lengthAdjust="spacing" textLength="153" x="59.5" y="501.8999">state = UNDERVOLTAGE;</text><text fill="#000000" font-family="sans-serif" font-size="12" lengthAdjust="spacing" textLength="135" x="59.5" y="515.8687">uvActivationTimer = 0</text><polygon fill="#F1F1F1" points="32,432.3589,240,432.3589,252,444.3589,240,456.3589,32,456.3589,20,444.3589,32,432.3589" style="stroke:#181818;stroke-width:0.5;"/><text fill="#000000" font-family="sans-serif" font-size="11" lengthAdjust="spacing" textLength="45" x="140" y="466.5693">UV TRIG</text><text fill="#000000" font-family="sans-serif" font-size="11" lengthAdjust="spacing" textLength="208" x="32" y="448.167">uvActivationTimer &gt;= ActivationTime</text><polygon fill="#F1F1F1" points="136,553.1011,148,565.1011,136,577.1011,124,565.1011,136,553.1011" style="stroke:#181818;stroke-width:0.5;"/><polygon fill="#F1F1F1" points="328,292.6167,460,292.6167,472,304.6167,460,316.6167,328,316.6167,316,304.6167,328,292.6167" style="stroke:#181818;stroke-width:0.5;"/><text fill="#000000" font-family="sans-serif" font-size="11" lengthAdjust="spacing" textLength="37" x="398" y="326.8271">OV ON</text><text fill="#000000" font-family="sans-serif" font-size="11" lengthAdjust="spacing" textLength="132" x="328" y="308.4248">voltage_mV &gt;= overOn</text><text fill="#000000" font-family="sans-serif" font-size="11" lengthAdjust="spacing" textLength="81" x="472" y="302.0225">NORMAL BAND</text><rect fill="#F1F1F1" height="47.9375" rx="12.5" ry="12.5" style="stroke:#181818;stroke-width:0.5;" width="198" x="295" y="349.4214"/><text fill="#000000" font-family="sans-serif" font-size="12" lengthAdjust="spacing" textLength="178" x="305" y="370.5601">ovActivationTimer += dt_ms;</text><text fill="#000000" font-family="sans-serif" font-size="12" lengthAdjust="spacing" textLength="135" x="305" y="384.5288">uvActivationTimer = 0</text><rect fill="#F1F1F1" height="47.9375" rx="12.5" ry="12.5" style="stroke:#181818;stroke-width:0.5;" width="163" x="312.5" y="480.7612"/><text fill="#000000" font-family="sans-serif" font-size="12" lengthAdjust="spacing" textLength="143" x="322.5" y="501.8999">state = OVERVOLTAGE;</text><text fill="#000000" font-family="sans-serif" font-size="12" lengthAdjust="spacing" textLength="135" x="322.5" y="515.8687">ovActivationTimer = 0</text><polygon fill="#F1F1F1" points="290,432.3589,498,432.3589,510,444.3589,498,456.3589,290,456.3589,278,444.3589,290,432.3589" style="stroke:#181818;stroke-width:0.5;"/><text fill="#000000" font-family="sans-serif" font-size="11" lengthAdjust="spacing" textLength="46" x="398" y="466.5693">OV TRIG</text><text fill="#000000" font-family="sans-serif" font-size="11" lengthAdjust="spacing" textLength="208" x="290" y="448.167">ovActivationTimer &gt;= ActivationTime</text><polygon fill="#F1F1F1" points="394,553.1011,406,565.1011,394,577.1011,382,565.1011,394,553.1011" style="stroke:#181818;stroke-width:0.5;"/><rect fill="#F1F1F1" height="33.9688" rx="12.5" ry="12.5" style="stroke:#181818;stroke-width:0.5;" width="310" x="542" y="442.8745"/><text fill="#000000" font-family="sans-serif" font-size="12" lengthAdjust="spacing" textLength="290" x="552" y="464.0132">Reset uvActivationTimer and ovActivationTimer</text><polygon fill="#F1F1F1" points="1054.25,157.9375,1199.25,157.9375,1211.25,169.9375,1199.25,181.9375,1054.25,181.9375,1042.25,169.9375,1054.25,157.9375" style="stroke:#181818;stroke-width:0.5;"/><text fill="#000000" font-family="sans-serif" font-size="11" lengthAdjust="spacing" textLength="15" x="1130.75" y="192.1479">UV</text><text fill="#000000" font-family="sans-serif" font-size="11" lengthAdjust="spacing" textLength="145" x="1054.25" y="173.7456">state == UNDERVOLTAGE</text><rect fill="#F1F1F1" height="33.9688" rx="12.5" ry="12.5" style="stroke:#181818;stroke-width:0.5;" width="164" x="1044.75" y="213.6479"/><text fill="#000000" font-family="sans-serif" font-size="12" lengthAdjust="spacing" textLength="144" x="1054.75" y="234.7866">Reset activation timers</text><polygon fill="#F1F1F1" points="1056.25,267.6167,1197.25,267.6167,1209.25,279.6167,1197.25,291.6167,1056.25,291.6167,1044.25,279.6167,1056.25,267.6167" style="stroke:#181818;stroke-width:0.5;"/><text fill="#000000" font-family="sans-serif" font-size="11" lengthAdjust="spacing" textLength="141" x="1056.25" y="283.4248">voltage_mV &gt;= underOff</text><text fill="#000000" font-family="sans-serif" font-size="11" lengthAdjust="spacing" textLength="106" x="938.25" y="277.0225">RECOVER BAND UV</text><text fill="#000000" font-family="sans-serif" font-size="11" lengthAdjust="spacing" textLength="49" x="1209.25" y="277.0225">STILL UV</text><rect fill="#F1F1F1" height="33.9688" rx="12.5" ry="12.5" style="stroke:#181818;stroke-width:0.5;" width="196" x="908" y="301.6167"/><text fill="#000000" font-family="sans-serif" font-size="12" lengthAdjust="spacing" textLength="176" x="918" y="322.7554">deactivationTimer += dt_ms</text><rect fill="#F1F1F1" height="47.9375" rx="12.5" ry="12.5" style="stroke:#181818;stroke-width:0.5;" width="157" x="927.5" y="418.9878"/><text fill="#000000" font-family="sans-serif" font-size="12" lengthAdjust="spacing" textLength="105" x="937.5" y="440.1265">state = NORMAL;</text><text fill="#000000" font-family="sans-serif" font-size="12" lengthAdjust="spacing" textLength="137" x="937.5" y="454.0952">deactivationTimer = 0</text><polygon fill="#F1F1F1" points="894,370.5854,1118,370.5854,1130,382.5854,1118,394.5854,894,394.5854,882,382.5854,894,370.5854" style="stroke:#181818;stroke-width:0.5;"/><text fill="#000000" font-family="sans-serif" font-size="11" lengthAdjust="spacing" textLength="71" x="1010" y="404.7959">RECOVER UV</text><text fill="#000000" font-family="sans-serif" font-size="11" lengthAdjust="spacing" textLength="224" x="894" y="386.3936">deactivationTimer &gt;= DeactivationTime</text><polygon fill="#F1F1F1" points="1006,491.3276,1018,503.3276,1006,515.3276,994,503.3276,1006,491.3276" style="stroke:#181818;stroke-width:0.5;"/><rect fill="#F1F1F1" height="33.9688" rx="12.5" ry="12.5" style="stroke:#181818;stroke-width:0.5;" width="171" x="1162" y="301.6167"/><text fill="#000000" font-family="sans-serif" font-size="12" lengthAdjust="spacing" textLength="151" x="1172" y="322.7554">Reset deactivationTimer</text><polygon fill="#F1F1F1" points="1126.75,521.3276,1138.75,533.3276,1126.75,545.3276,1114.75,533.3276,1126.75,521.3276" style="stroke:#181818;stroke-width:0.5;"/><polygon fill="#F1F1F1" points="1519.25,157.9375,1656.25,157.9375,1668.25,169.9375,1656.25,181.9375,1519.25,181.9375,1507.25,169.9375,1519.25,157.9375" style="stroke:#181818;stroke-width:0.5;"/><text fill="#000000" font-family="sans-serif" font-size="11" lengthAdjust="spacing" textLength="16" x="1591.75" y="192.1479">OV</text><text fill="#000000" font-family="sans-serif" font-size="11" lengthAdjust="spacing" textLength="137" x="1519.25" y="173.7456">state == OVERVOLTAGE</text><text fill="#000000" font-family="sans-serif" font-size="11" lengthAdjust="spacing" textLength="42" x="1668.25" y="167.3433">INVALID</text><rect fill="#F1F1F1" height="33.9688" rx="12.5" ry="12.5" style="stroke:#181818;stroke-width:0.5;" width="164" x="1505.75" y="213.6479"/><text fill="#000000" font-family="sans-serif" font-size="12" lengthAdjust="spacing" textLength="144" x="1515.75" y="234.7866">Reset activation timers</text><polygon fill="#F1F1F1" points="1521.25,267.6167,1654.25,267.6167,1666.25,279.6167,1654.25,291.6167,1521.25,291.6167,1509.25,279.6167,1521.25,267.6167" style="stroke:#181818;stroke-width:0.5;"/><text fill="#000000" font-family="sans-serif" font-size="11" lengthAdjust="spacing" textLength="133" x="1521.25" y="283.4248">voltage_mV &lt;= overOff</text><text fill="#000000" font-family="sans-serif" font-size="11" lengthAdjust="spacing" textLength="107" x="1402.25" y="277.0225">RECOVER BAND OV</text><text fill="#000000" font-family="sans-serif" font-size="11" lengthAdjust="spacing" textLength="50" x="1666.25" y="277.0225">STILL OV</text><rect fill="#F1F1F1" height="33.9688" rx="12.5" ry="12.5" style="stroke:#181818;stroke-width:0.5;" width="196" x="1369" y="301.6167"/><text fill="#000000" font-family="sans-serif" font-size="12" lengthAdjust="spacing" textLength="176" x="1379" y="322.7554">deactivationTimer += dt_ms</text><rect fill="#F1F1F1" height="47.9375" rx="12.5" ry="12.5" style="stroke:#181818;stroke-width:0.5;" width="157" x="1388.5" y="418.9878"/><text fill="#000000" font-family="sans-serif" font-size="12" lengthAdjust="spacing" textLength="105" x="1398.5" y="440.1265">state = NORMAL;</text><text fill="#000000" font-family="sans-serif" font-size="12" lengthAdjust="spacing" textLength="137" x="1398.5" y="454.0952">deactivationTimer = 0</text><polygon fill="#F1F1F1" points="1355,370.5854,1579,370.5854,1591,382.5854,1579,394.5854,1355,394.5854,1343,382.5854,1355,370.5854" style="stroke:#181818;stroke-width:0.5;"/><text fill="#000000" font-family="sans-serif" font-size="11" lengthAdjust="spacing" textLength="72" x="1471" y="404.7959">RECOVER OV</text><text fill="#000000" font-family="sans-serif" font-size="11" lengthAdjust="spacing" textLength="224" x="1355" y="386.3936">deactivationTimer &gt;= DeactivationTime</text><polygon fill="#F1F1F1" points="1467,491.3276,1479,503.3276,1467,515.3276,1455,503.3276,1467,491.3276" style="stroke:#181818;stroke-width:0.5;"/><rect fill="#F1F1F1" height="33.9688" rx="12.5" ry="12.5" style="stroke:#181818;stroke-width:0.5;" width="171" x="1623" y="301.6167"/><text fill="#000000" font-family="sans-serif" font-size="12" lengthAdjust="spacing" textLength="151" x="1633" y="322.7554">Reset deactivationTimer</text><polygon fill="#F1F1F1" points="1587.75,521.3276,1599.75,533.3276,1587.75,545.3276,1575.75,533.3276,1587.75,521.3276" style="stroke:#181818;stroke-width:0.5;"/><rect fill="#F1F1F1" height="33.9688" rx="12.5" ry="12.5" style="stroke:#181818;stroke-width:0.5;" width="182" x="1804" y="370.5034"/><text fill="#000000" font-family="sans-serif" font-size="12" lengthAdjust="spacing" textLength="162" x="1814" y="391.6421">Reset state and all timers</text><rect fill="#F1F1F1" height="33.9688" rx="12.5" ry="12.5" style="stroke:#181818;stroke-width:0.5;" width="121" x="1834.5" y="439.4722"/><text fill="#000000" font-family="sans-serif" font-size="12" lengthAdjust="spacing" textLength="101" x="1844.5" y="460.6108">state = NORMAL</text><ellipse cx="1025" cy="648.1011" fill="none" rx="11" ry="11" style="stroke:#222222;stroke-width:1.0;"/><ellipse cx="1025" cy="648.1011" fill="#222222" rx="6" ry="6" style="stroke:#222222;stroke-width:1.0;"/><line style="stroke:#181818;stroke-width:1.0;" x1="1025" x2="1025" y1="30" y2="50"/><polygon fill="#181818" points="1021,40,1025,50,1029,40,1025,44" style="stroke:#181818;stroke-width:1.0;"/><line style="stroke:#181818;stroke-width:1.0;" x1="1025" x2="1025" y1="83.9688" y2="103.9688"/><polygon fill="#181818" points="1021,93.9688,1025,103.9688,1029,93.9688,1025,97.9688" style="stroke:#181818;stroke-width:1.0;"/><line style="stroke:#181818;stroke-width:1.0;" x1="136" x2="136" y1="456.3589" y2="480.7612"/><polygon fill="#181818" points="132,470.7612,136,480.7612,140,470.7612,136,474.7612" style="stroke:#181818;stroke-width:1.0;"/><line style="stroke:#181818;stroke-width:1.0;" x1="252" x2="264" y1="444.3589" y2="444.3589"/><polygon fill="#181818" points="260,494.73,264,504.73,268,494.73,264,498.73" style="stroke:#181818;stroke-width:1.0;"/><line style="stroke:#181818;stroke-width:1.0;" x1="264" x2="264" y1="444.3589" y2="565.1011"/><line style="stroke:#181818;stroke-width:1.0;" x1="264" x2="148" y1="565.1011" y2="565.1011"/><polygon fill="#181818" points="158,561.1011,148,565.1011,158,569.1011,154,565.1011" style="stroke:#181818;stroke-width:1.0;"/><line style="stroke:#181818;stroke-width:1.0;" x1="136" x2="136" y1="528.6987" y2="553.1011"/><polygon fill="#181818" points="132,543.1011,136,553.1011,140,543.1011,136,547.1011" style="stroke:#181818;stroke-width:1.0;"/><line style="stroke:#181818;stroke-width:1.0;" x1="136" x2="136" y1="397.3589" y2="432.3589"/><polygon fill="#181818" points="132,422.3589,136,432.3589,140,422.3589,136,426.3589" style="stroke:#181818;stroke-width:1.0;"/><line style="stroke:#181818;stroke-width:1.0;" x1="394" x2="394" y1="456.3589" y2="480.7612"/><polygon fill="#181818" points="390,470.7612,394,480.7612,398,470.7612,394,474.7612" style="stroke:#181818;stroke-width:1.0;"/><line style="stroke:#181818;stroke-width:1.0;" x1="510" x2="522" y1="444.3589" y2="444.3589"/><polygon fill="#181818" points="518,494.73,522,504.73,526,494.73,522,498.73" style="stroke:#181818;stroke-width:1.0;"/><line style="stroke:#181818;stroke-width:1.0;" x1="522" x2="522" y1="444.3589" y2="565.1011"/><line style="stroke:#181818;stroke-width:1.0;" x1="522" x2="406" y1="565.1011" y2="565.1011"/><polygon fill="#181818" points="416,561.1011,406,565.1011,416,569.1011,412,565.1011" style="stroke:#181818;stroke-width:1.0;"/><line style="stroke:#181818;stroke-width:1.0;" x1="394" x2="394" y1="528.6987" y2="553.1011"/><polygon fill="#181818" points="390,543.1011,394,553.1011,398,543.1011,394,547.1011" style="stroke:#181818;stroke-width:1.0;"/><line style="stroke:#181818;stroke-width:1.0;" x1="394" x2="394" y1="397.3589" y2="432.3589"/><polygon fill="#181818" points="390,422.3589,394,432.3589,398,422.3589,394,426.3589" style="stroke:#181818;stroke-width:1.0;"/><line style="stroke:#181818;stroke-width:1.0;" x1="136" x2="136" y1="316.6167" y2="349.4214"/><polygon fill="#181818" points="132,339.4214,136,349.4214,140,339.4214,136,343.4214" style="stroke:#181818;stroke-width:1.0;"/><line style="stroke:#181818;stroke-width:1.0;" x1="136" x2="136" y1="577.1011" y2="597.1011"/><polygon fill="#181818" points="132,587.1011,136,597.1011,140,587.1011,136,591.1011" style="stroke:#181818;stroke-width:1.0;"/><line style="stroke:#181818;stroke-width:1.0;" x1="394" x2="394" y1="316.6167" y2="349.4214"/><polygon fill="#181818" points="390,339.4214,394,349.4214,398,339.4214,394,343.4214" style="stroke:#181818;stroke-width:1.0;"/><line style="stroke:#181818;stroke-width:1.0;" x1="394" x2="394" y1="577.1011" y2="597.1011"/><polygon fill="#181818" points="390,587.1011,394,597.1011,398,587.1011,394,591.1011" style="stroke:#181818;stroke-width:1.0;"/><line style="stroke:#181818;stroke-width:1.0;" x1="218" x2="316" y1="304.6167" y2="304.6167"/><polygon fill="#181818" points="306,300.6167,316,304.6167,306,308.6167,310,304.6167" style="stroke:#181818;stroke-width:1.0;"/><line style="stroke:#181818;stroke-width:1.0;" x1="433" x2="433" y1="247.6167" y2="267.6167"/><line style="stroke:#181818;stroke-width:1.0;" x1="433" x2="136" y1="267.6167" y2="267.6167"/><line style="stroke:#181818;stroke-width:1.0;" x1="136" x2="136" y1="267.6167" y2="292.6167"/><polygon fill="#181818" points="132,282.6167,136,292.6167,140,282.6167,136,286.6167" style="stroke:#181818;stroke-width:1.0;"/><line style="stroke:#181818;stroke-width:1.0;" x1="472" x2="697" y1="304.6167" y2="304.6167"/><line style="stroke:#181818;stroke-width:1.0;" x1="697" x2="697" y1="304.6167" y2="442.8745"/><polygon fill="#181818" points="693,432.8745,697,442.8745,701,432.8745,697,436.8745" style="stroke:#181818;stroke-width:1.0;"/><line style="stroke:#181818;stroke-width:1.0;" x1="697" x2="697" y1="476.8433" y2="597.1011"/><polygon fill="#181818" points="693,587.1011,697,597.1011,701,587.1011,697,591.1011" style="stroke:#181818;stroke-width:1.0;"/><line style="stroke:#181818;stroke-width:1.0;" x1="136" x2="697" y1="597.1011" y2="597.1011"/><line style="stroke:#181818;stroke-width:1.0;" x1="1006" x2="1006" y1="394.5854" y2="418.9878"/><polygon fill="#181818" points="1002,408.9878,1006,418.9878,1010,408.9878,1006,412.9878" style="stroke:#181818;stroke-width:1.0;"/><line style="stroke:#181818;stroke-width:1.0;" x1="1130" x2="1142" y1="382.5854" y2="382.5854"/><polygon fill="#181818" points="1138,432.9565,1142,442.9565,1146,432.9565,1142,436.9565" style="stroke:#181818;stroke-width:1.0;"/><line style="stroke:#181818;stroke-width:1.0;" x1="1142" x2="1142" y1="382.5854" y2="503.3276"/><line style="stroke:#181818;stroke-width:1.0;" x1="1142" x2="1018" y1="503.3276" y2="503.3276"/><polygon fill="#181818" points="1028,499.3276,1018,503.3276,1028,507.3276,1024,503.3276" style="stroke:#181818;stroke-width:1.0;"/><line style="stroke:#181818;stroke-width:1.0;" x1="1006" x2="1006" y1="466.9253" y2="491.3276"/><polygon fill="#181818" points="1002,481.3276,1006,491.3276,1010,481.3276,1006,485.3276" style="stroke:#181818;stroke-width:1.0;"/><line style="stroke:#181818;stroke-width:1.0;" x1="1006" x2="1006" y1="335.5854" y2="370.5854"/><polygon fill="#181818" points="1002,360.5854,1006,370.5854,1010,360.5854,1006,364.5854" style="stroke:#181818;stroke-width:1.0;"/><line style="stroke:#181818;stroke-width:1.0;" x1="1044.25" x2="1006" y1="279.6167" y2="279.6167"/><line style="stroke:#181818;stroke-width:1.0;" x1="1006" x2="1006" y1="279.6167" y2="301.6167"/><polygon fill="#181818" points="1002,291.6167,1006,301.6167,1010,291.6167,1006,295.6167" style="stroke:#181818;stroke-width:1.0;"/><line style="stroke:#181818;stroke-width:1.0;" x1="1209.25" x2="1247.5" y1="279.6167" y2="279.6167"/><line style="stroke:#181818;stroke-width:1.0;" x1="1247.5" x2="1247.5" y1="279.6167" y2="301.6167"/><polygon fill="#181818" points="1243.5,291.6167,1247.5,301.6167,1251.5,291.6167,1247.5,295.6167" style="stroke:#181818;stroke-width:1.0;"/><line style="stroke:#181818;stroke-width:1.0;" x1="1006" x2="1006" y1="515.3276" y2="533.3276"/><line style="stroke:#181818;stroke-width:1.0;" x1="1006" x2="1114.75" y1="533.3276" y2="533.3276"/><polygon fill="#181818" points="1104.75,529.3276,1114.75,533.3276,1104.75,537.3276,1108.75,533.3276" style="stroke:#181818;stroke-width:1.0;"/><line style="stroke:#181818;stroke-width:1.0;" x1="1247.5" x2="1247.5" y1="335.5854" y2="533.3276"/><line style="stroke:#181818;stroke-width:1.0;" x1="1247.5" x2="1138.75" y1="533.3276" y2="533.3276"/><polygon fill="#181818" points="1148.75,529.3276,1138.75,533.3276,1148.75,537.3276,1144.75,533.3276" style="stroke:#181818;stroke-width:1.0;"/><line style="stroke:#181818;stroke-width:1.0;" x1="1126.75" x2="1126.75" y1="247.6167" y2="267.6167"/><polygon fill="#181818" points="1122.75,257.6167,1126.75,267.6167,1130.75,257.6167,1126.75,261.6167" style="stroke:#181818;stroke-width:1.0;"/><line style="stroke:#181818;stroke-width:1.0;" x1="1467" x2="1467" y1="394.5854" y2="418.9878"/><polygon fill="#181818" points="1463,408.9878,1467,418.9878,1471,408.9878,1467,412.9878" style="stroke:#181818;stroke-width:1.0;"/><line style="stroke:#181818;stroke-width:1.0;" x1="1591" x2="1603" y1="382.5854" y2="382.5854"/><polygon fill="#181818" points="1599,432.9565,1603,442.9565,1607,432.9565,1603,436.9565" style="stroke:#181818;stroke-width:1.0;"/><line style="stroke:#181818;stroke-width:1.0;" x1="1603" x2="1603" y1="382.5854" y2="503.3276"/><line style="stroke:#181818;stroke-width:1.0;" x1="1603" x2="1479" y1="503.3276" y2="503.3276"/><polygon fill="#181818" points="1489,499.3276,1479,503.3276,1489,507.3276,1485,503.3276" style="stroke:#181818;stroke-width:1.0;"/><line style="stroke:#181818;stroke-width:1.0;" x1="1467" x2="1467" y1="466.9253" y2="491.3276"/><polygon fill="#181818" points="1463,481.3276,1467,491.3276,1471,481.3276,1467,485.3276" style="stroke:#181818;stroke-width:1.0;"/><line style="stroke:#181818;stroke-width:1.0;" x1="1467" x2="1467" y1="335.5854" y2="370.5854"/><polygon fill="#181818" points="1463,360.5854,1467,370.5854,1471,360.5854,1467,364.5854" style="stroke:#181818;stroke-width:1.0;"/><line style="stroke:#181818;stroke-width:1.0;" x1="1509.25" x2="1467" y1="279.6167" y2="279.6167"/><line style="stroke:#181818;stroke-width:1.0;" x1="1467" x2="1467" y1="279.6167" y2="301.6167"/><polygon fill="#181818" points="1463,291.6167,1467,301.6167,1471,291.6167,1467,295.6167" style="stroke:#181818;stroke-width:1.0;"/><line style="stroke:#181818;stroke-width:1.0;" x1="1666.25" x2="1708.5" y1="279.6167" y2="279.6167"/><line style="stroke:#181818;stroke-width:1.0;" x1="1708.5" x2="1708.5" y1="279.6167" y2="301.6167"/><polygon fill="#181818" points="1704.5,291.6167,1708.5,301.6167,1712.5,291.6167,1708.5,295.6167" style="stroke:#181818;stroke-width:1.0;"/><line style="stroke:#181818;stroke-width:1.0;" x1="1467" x2="1467" y1="515.3276" y2="533.3276"/><line style="stroke:#181818;stroke-width:1.0;" x1="1467" x2="1575.75" y1="533.3276" y2="533.3276"/><polygon fill="#181818" points="1565.75,529.3276,1575.75,533.3276,1565.75,537.3276,1569.75,533.3276" style="stroke:#181818;stroke-width:1.0;"/><line style="stroke:#181818;stroke-width:1.0;" x1="1708.5" x2="1708.5" y1="335.5854" y2="533.3276"/><line style="stroke:#181818;stroke-width:1.0;" x1="1708.5" x2="1599.75" y1="533.3276" y2="533.3276"/><polygon fill="#181818" points="1609.75,529.3276,1599.75,533.3276,1609.75,537.3276,1605.75,533.3276" style="stroke:#181818;stroke-width:1.0;"/><line style="stroke:#181818;stroke-width:1.0;" x1="1587.75" x2="1587.75" y1="247.6167" y2="267.6167"/><polygon fill="#181818" points="1583.75,257.6167,1587.75,267.6167,1591.75,257.6167,1587.75,261.6167" style="stroke:#181818;stroke-width:1.0;"/><line style="stroke:#181818;stroke-width:1.0;" x1="1895" x2="1895" y1="404.4722" y2="439.4722"/><polygon fill="#181818" points="1891,429.4722,1895,439.4722,1899,429.4722,1895,433.4722" style="stroke:#181818;stroke-width:1.0;"/><line style="stroke:#181818;stroke-width:1.0;" x1="433" x2="433" y1="181.9375" y2="213.6479"/><polygon fill="#181818" points="429,203.6479,433,213.6479,437,203.6479,433,207.6479" style="stroke:#181818;stroke-width:1.0;"/><line style="stroke:#181818;stroke-width:1.0;" x1="433" x2="433" y1="597.1011" y2="617.1011"/><polygon fill="#181818" points="429,607.1011,433,617.1011,437,607.1011,433,611.1011" style="stroke:#181818;stroke-width:1.0;"/><line style="stroke:#181818;stroke-width:1.0;" x1="1126.75" x2="1126.75" y1="181.9375" y2="213.6479"/><polygon fill="#181818" points="1122.75,203.6479,1126.75,213.6479,1130.75,203.6479,1126.75,207.6479" style="stroke:#181818;stroke-width:1.0;"/><line style="stroke:#181818;stroke-width:1.0;" x1="1126.75" x2="1126.75" y1="545.3276" y2="617.1011"/><polygon fill="#181818" points="1122.75,607.1011,1126.75,617.1011,1130.75,607.1011,1126.75,611.1011" style="stroke:#181818;stroke-width:1.0;"/><line style="stroke:#181818;stroke-width:1.0;" x1="1587.75" x2="1587.75" y1="181.9375" y2="213.6479"/><polygon fill="#181818" points="1583.75,203.6479,1587.75,213.6479,1591.75,203.6479,1587.75,207.6479" style="stroke:#181818;stroke-width:1.0;"/><line style="stroke:#181818;stroke-width:1.0;" x1="1587.75" x2="1587.75" y1="545.3276" y2="617.1011"/><polygon fill="#181818" points="1583.75,607.1011,1587.75,617.1011,1591.75,607.1011,1587.75,611.1011" style="stroke:#181818;stroke-width:1.0;"/><line style="stroke:#181818;stroke-width:1.0;" x1="495.5" x2="1042.25" y1="169.9375" y2="169.9375"/><polygon fill="#181818" points="1032.25,165.9375,1042.25,169.9375,1032.25,173.9375,1036.25,169.9375" style="stroke:#181818;stroke-width:1.0;"/><line style="stroke:#181818;stroke-width:1.0;" x1="1211.25" x2="1507.25" y1="169.9375" y2="169.9375"/><polygon fill="#181818" points="1497.25,165.9375,1507.25,169.9375,1497.25,173.9375,1501.25,169.9375" style="stroke:#181818;stroke-width:1.0;"/><line style="stroke:#181818;stroke-width:1.0;" x1="1025" x2="1025" y1="137.9375" y2="142.9375"/><line style="stroke:#181818;stroke-width:1.0;" x1="1025" x2="433" y1="142.9375" y2="142.9375"/><line style="stroke:#181818;stroke-width:1.0;" x1="433" x2="433" y1="142.9375" y2="157.9375"/><polygon fill="#181818" points="429,147.9375,433,157.9375,437,147.9375,433,151.9375" style="stroke:#181818;stroke-width:1.0;"/><line style="stroke:#181818;stroke-width:1.0;" x1="1668.25" x2="1895" y1="169.9375" y2="169.9375"/><line style="stroke:#181818;stroke-width:1.0;" x1="1895" x2="1895" y1="169.9375" y2="370.5034"/><polygon fill="#181818" points="1891,360.5034,1895,370.5034,1899,360.5034,1895,364.5034" style="stroke:#181818;stroke-width:1.0;"/><line style="stroke:#181818;stroke-width:1.0;" x1="1895" x2="1895" y1="473.4409" y2="617.1011"/><polygon fill="#181818" points="1891,607.1011,1895,617.1011,1899,607.1011,1895,611.1011" style="stroke:#181818;stroke-width:1.0;"/><line style="stroke:#181818;stroke-width:1.0;" x1="433" x2="1895" y1="617.1011" y2="617.1011"/><line style="stroke:#181818;stroke-width:1.0;" x1="1025" x2="1025" y1="617.1011" y2="637.1011"/><polygon fill="#181818" points="1021,627.1011,1025,637.1011,1029,627.1011,1025,631.1011" style="stroke:#181818;stroke-width:1.0;"/><!--SRC=[lLJHQeCm57ttA-vZn_gmvzeKt2n5S0QSzMbGmeohOCqmqUzVeb6ZTgw5CL-CD-QSUyuzoWKfXRK9AKcWPhaWd_HqYMrT4UUIyZFB4xw1gaXeYOkrNgJf6bZTLffxcjgMbQMmue882WX1WCDNnt-GABI0bNwo02Gsfm8IIZv4LXEHiIBABhIqvPu26Fg0BUfuEvXZ33XGAEhQLBKpne1718auNRZzNh3P9e8dMnzLHFFJEmJZaa4RXTwX8sx8jL0u1ku-ZB4VEOUzfAsMQ6cHPAbSqvpJgLX9tZhQaUAHLhQajVfDAxjTArxGYcDJAhjPgXu_F3k1sojgSp1ldHG9pA0LR0jfzURrKJD7C8pC2DiGDH0AZLy9smxrsUummlsBKjoq3IrWq_aikyCi3C_dRqaATrASKWqi8-DR_wJdSz0VFN-BFDytsrxuy7wqrfZu490xdTsYxXznrLZyByRYlpOMtstioWjYn_TSmxws3PLuakU6WzF-B8t31Vlw1W00]--></g></svg>