<?xml version="1.0" encoding="UTF-8" standalone="no"?>
<!DOCTYPE svg PUBLIC "-//W3C//DTD SVG 1.1//EN"
 "http://www.w3.org/Graphics/SVG/1.1/DTD/svg11.dtd">
<!-- Generated by graphviz version 2.43.0 (0)
 -->
<!-- Title: voltMonRun Pages: 1 -->
<svg width="263pt" height="138pt"
 viewBox="0.00 0.00 263.00 138.00" xmlns="http://www.w3.org/2000/svg" xmlns:xlink="http://www.w3.org/1999/xlink">
<g id="graph0" class="graph" transform="scale(1 1) rotate(0) translate(4 134)">
<title>voltMonRun</title>
<!-- Node1 -->
<g id="Node000001" class="node">
<title>Node1</title>
<g id="a_Node000001"><a xlink:title="Execute the voltage monitoring state machine.">
<polygon fill="#999999" stroke="#666666" points="75,-74 0,-74 0,-55 75,-55 75,-74"/>
<text text-anchor="middle" x="37.5" y="-62" font-family="Helvetica,sans-Serif" font-size="10.00">voltMonRun</text>
</a>
</g>
</g>
<!-- Node2 -->
<g id="Node000002" class="node">
<title>Node2</title>
<g id="a_Node000002"><a xlink:href="VoltMonitoring_8c.html#adfac8254278a530630a0fcd462c2ed2c" target="_top" xlink:title=" ">
<polygon fill="white" stroke="#666666" points="252,-130 114,-130 114,-111 252,-111 252,-130"/>
<text text-anchor="middle" x="183" y="-118" font-family="Helvetica,sans-Serif" font-size="10.00">VoltMon_GetOverOff_mV</text>
</a>
</g>
</g>
<!-- Node1&#45;&gt;Node2 -->
<g id="edge1_Node000001_Node000002" class="edge">
<title>Node1&#45;&gt;Node2</title>
<g id="a_edge1_Node000001_Node000002"><a xlink:title=" ">
<path fill="none" stroke="#63b8ff" d="M54.12,-74.06C68.48,-82.52 90.56,-94.68 111,-102.5 116.4,-104.57 122.13,-106.47 127.89,-108.2"/>
<polygon fill="#63b8ff" stroke="#63b8ff" points="126.99,-111.58 137.57,-110.94 128.9,-104.85 126.99,-111.58"/>
</a>
</g>
</g>
<!-- Node3 -->
<g id="Node000003" class="node">
<title>Node3</title>
<g id="a_Node000003"><a xlink:href="VoltMonitoring_8c.html#acc30d862b3a3bcc4d901b027bf7a8bc5" target="_top" xlink:title=" ">
<polygon fill="white" stroke="#666666" points="251.5,-93 114.5,-93 114.5,-74 251.5,-74 251.5,-93"/>
<text text-anchor="middle" x="183" y="-81" font-family="Helvetica,sans-Serif" font-size="10.00">VoltMon_GetOverOn_mV</text>
</a>
</g>
</g>
<!-- Node1&#45;&gt;Node3 -->
<g id="edge2_Node000001_Node000003" class="edge">
<title>Node1&#45;&gt;Node3</title>
<g id="a_edge2_Node000001_Node000003"><a xlink:title=" ">
<path fill="none" stroke="#63b8ff" d="M75.08,-69.34C84.05,-70.53 93.99,-71.85 104.1,-73.19"/>
<polygon fill="#63b8ff" stroke="#63b8ff" points="103.86,-76.68 114.23,-74.53 104.77,-69.74 103.86,-76.68"/>
</a>
</g>
</g>
<!-- Node4 -->
<g id="Node000004" class="node">
<title>Node4</title>
<g id="a_Node000004"><a xlink:href="VoltMonitoring_8c.html#ada2370cadea69de4aae2979dc5fc18ac" target="_top" xlink:title=" ">
<polygon fill="white" stroke="#666666" points="255,-56 111,-56 111,-37 255,-37 255,-56"/>
<text text-anchor="middle" x="183" y="-44" font-family="Helvetica,sans-Serif" font-size="10.00">VoltMon_GetUnderOff_mV</text>
</a>
</g>
</g>
<!-- Node1&#45;&gt;Node4 -->
<g id="edge3_Node000001_Node000004" class="edge">
<title>Node1&#45;&gt;Node4</title>
<g id="a_edge3_Node000001_Node000004"><a xlink:title=" ">
<path fill="none" stroke="#63b8ff" d="M75.08,-59.91C83.05,-58.91 91.78,-57.82 100.71,-56.7"/>
<polygon fill="#63b8ff" stroke="#63b8ff" points="101.36,-60.14 110.85,-55.42 100.49,-53.2 101.36,-60.14"/>
</a>
</g>
</g>
<!-- Node5 -->
<g id="Node000005" class="node">
<title>Node5</title>
<g id="a_Node000005"><a xlink:href="VoltMonitoring_8c.html#a250b93a5cb1692394ae433157c02dd0f" target="_top" xlink:title=" ">
<polygon fill="white" stroke="#666666" points="254.5,-19 111.5,-19 111.5,0 254.5,0 254.5,-19"/>
<text text-anchor="middle" x="183" y="-7" font-family="Helvetica,sans-Serif" font-size="10.00">VoltMon_GetUnderOn_mV</text>
</a>
</g>
</g>
<!-- Node1&#45;&gt;Node5 -->
<g id="edge4_Node000001_Node000005" class="edge">
<title>Node1&#45;&gt;Node5</title>
<g id="a_edge4_Node000001_Node000005"><a xlink:title=" ">
<path fill="none" stroke="#63b8ff" d="M55.35,-54.93C69.78,-47.03 91.28,-35.95 111,-28.5 117.34,-26.11 124.1,-23.89 130.83,-21.88"/>
<polygon fill="#63b8ff" stroke="#63b8ff" points="131.98,-25.19 140.63,-19.08 130.06,-18.46 131.98,-25.19"/>
</a>
</g>
</g>
</g>
</svg>
