<?xml version="1.0" encoding="UTF-8" standalone="no"?>
<!DOCTYPE svg PUBLIC "-//W3C//DTD SVG 1.1//EN"
 "http://www.w3.org/Graphics/SVG/1.1/DTD/svg11.dtd">
<!-- Generated by graphviz version 2.43.0 (0)
 -->
<!-- Title: cfg/diagnostic_cfg.h Pages: 1 -->
<svg width="381pt" height="148pt"
 viewBox="0.00 0.00 381.00 148.00" xmlns="http://www.w3.org/2000/svg" xmlns:xlink="http://www.w3.org/1999/xlink">
<g id="graph0" class="graph" transform="scale(1 1) rotate(0) translate(4 144)">
<title>cfg/diagnostic_cfg.h</title>
<!-- Node1 -->
<g id="Node000001" class="node">
<title>Node1</title>
<g id="a_Node000001"><a xlink:title="Configuration and helper services for the Diagnostic module.">
<polygon fill="#999999" stroke="#666666" points="240.5,-140 126.5,-140 126.5,-121 240.5,-121 240.5,-140"/>
<text text-anchor="middle" x="183.5" y="-128" font-family="Helvetica,sans-Serif" font-size="10.00">cfg/diagnostic_cfg.h</text>
</a>
</g>
</g>
<!-- Node2 -->
<g id="Node000002" class="node">
<title>Node2</title>
<g id="a_Node000002"><a xlink:href="diagnostic__cfg_8c.html" target="_top" xlink:title="Implementation of the Diagnostic configuration services.">
<polygon fill="white" stroke="#666666" points="113,-79.5 0,-79.5 0,-60.5 113,-60.5 113,-79.5"/>
<text text-anchor="middle" x="56.5" y="-67.5" font-family="Helvetica,sans-Serif" font-size="10.00">cfg/diagnostic_cfg.c</text>
</a>
</g>
</g>
<!-- Node1&#45;&gt;Node2 -->
<g id="edge1_Node000001_Node000002" class="edge">
<title>Node1&#45;&gt;Node2</title>
<g id="a_edge1_Node000001_Node000002"><a xlink:title=" ">
<path fill="none" stroke="#63b8ff" d="M155.89,-116.78C131.38,-105.49 96.26,-89.31 74.99,-79.52"/>
<polygon fill="#63b8ff" stroke="#63b8ff" points="154.49,-119.99 165.03,-120.99 157.41,-113.63 154.49,-119.99"/>
</a>
</g>
</g>
<!-- Node3 -->
<g id="Node000003" class="node">
<title>Node3</title>
<g id="a_Node000003"><a xlink:href="diagnostic__cfg__priv_8h.html" target="_top" xlink:title="Configuration and helper services for the Diagnostic module.">
<polygon fill="white" stroke="#666666" points="236,-85 131,-85 131,-55 236,-55 236,-85"/>
<text text-anchor="start" x="139" y="-73" font-family="Helvetica,sans-Serif" font-size="10.00">cfg/diagnostic_cfg</text>
<text text-anchor="middle" x="183.5" y="-62" font-family="Helvetica,sans-Serif" font-size="10.00">_priv.h</text>
</a>
</g>
</g>
<!-- Node1&#45;&gt;Node3 -->
<g id="edge2_Node000001_Node000003" class="edge">
<title>Node1&#45;&gt;Node3</title>
<g id="a_edge2_Node000001_Node000003"><a xlink:title=" ">
<path fill="none" stroke="#63b8ff" d="M183.5,-110.65C183.5,-102.36 183.5,-92.78 183.5,-85.11"/>
<polygon fill="#63b8ff" stroke="#63b8ff" points="180,-110.87 183.5,-120.87 187,-110.87 180,-110.87"/>
</a>
</g>
</g>
<!-- Node4 -->
<g id="Node000004" class="node">
<title>Node4</title>
<g id="a_Node000004"><a xlink:href="diagnostic__priv_8h.html" target="_top" xlink:title=" ">
<polygon fill="white" stroke="#666666" points="373,-79.5 254,-79.5 254,-60.5 373,-60.5 373,-79.5"/>
<text text-anchor="middle" x="313.5" y="-67.5" font-family="Helvetica,sans-Serif" font-size="10.00">pltf/diagnostic_priv.h</text>
</a>
</g>
</g>
<!-- Node1&#45;&gt;Node4 -->
<g id="edge3_Node000001_Node000004" class="edge">
<title>Node1&#45;&gt;Node4</title>
<g id="a_edge3_Node000001_Node000004"><a xlink:title=" ">
<path fill="none" stroke="#63b8ff" d="M211.76,-116.78C236.85,-105.49 272.81,-89.31 294.57,-79.52"/>
<polygon fill="#63b8ff" stroke="#63b8ff" points="210.09,-113.7 202.4,-120.99 212.96,-120.08 210.09,-113.7"/>
</a>
</g>
</g>
<!-- Node5 -->
<g id="Node000005" class="node">
<title>Node5</title>
<g id="a_Node000005"><a xlink:href="diagnostic_8c.html" target="_top" xlink:title=" ">
<polygon fill="white" stroke="#666666" points="361,-19 266,-19 266,0 361,0 361,-19"/>
<text text-anchor="middle" x="313.5" y="-7" font-family="Helvetica,sans-Serif" font-size="10.00">pltf/diagnostic.c</text>
</a>
</g>
</g>
<!-- Node4&#45;&gt;Node5 -->
<g id="edge4_Node000004_Node000005" class="edge">
<title>Node4&#45;&gt;Node5</title>
<g id="a_edge4_Node000004_Node000005"><a xlink:title=" ">
<path fill="none" stroke="#63b8ff" d="M313.5,-50.16C313.5,-39.74 313.5,-27.3 313.5,-19.17"/>
<polygon fill="#63b8ff" stroke="#63b8ff" points="310,-50.37 313.5,-60.37 317,-50.37 310,-50.37"/>
</a>
</g>
</g>
</g>
</svg>
