<?xml version="1.0" encoding="UTF-8" standalone="no"?>
<!DOCTYPE svg PUBLIC "-//W3C//DTD SVG 1.1//EN"
 "http://www.w3.org/Graphics/SVG/1.1/DTD/svg11.dtd">
<!-- Generated by graphviz version 2.43.0 (0)
 -->
<!-- Title: Subfunction_Request_Out_Of_Range Pages: 1 -->
<svg width="505pt" height="38pt"
 viewBox="0.00 0.00 505.00 38.00" xmlns="http://www.w3.org/2000/svg" xmlns:xlink="http://www.w3.org/1999/xlink">
<g id="graph0" class="graph" transform="scale(1 1) rotate(0) translate(4 34)">
<title>Subfunction_Request_Out_Of_Range</title>
<!-- Node1 -->
<g id="Node000001" class="node">
<title>Node1</title>
<g id="a_Node000001"><a xlink:title=" ">
<polygon fill="#999999" stroke="#666666" points="497,-30 378,-30 378,0 497,0 497,-30"/>
<text text-anchor="start" x="386" y="-18" font-family="Helvetica,sans-Serif" font-size="10.00">Subfunction_Request</text>
<text text-anchor="middle" x="437.5" y="-7" font-family="Helvetica,sans-Serif" font-size="10.00">_Out_Of_Range</text>
</a>
</g>
</g>
<!-- Node2 -->
<g id="Node000002" class="node">
<title>Node2</title>
<g id="a_Node000002"><a xlink:href="diagnostic__cfg_8c.html#a975b0982a9f89e799a8a951d119b5805" target="_top" xlink:title=" ">
<polygon fill="white" stroke="#666666" points="342,-24.5 181,-24.5 181,-5.5 342,-5.5 342,-24.5"/>
<text text-anchor="middle" x="261.5" y="-12.5" font-family="Helvetica,sans-Serif" font-size="10.00">getHandlersForReadDataById</text>
</a>
</g>
</g>
<!-- Node1&#45;&gt;Node2 -->
<g id="edge1_Node000001_Node000002" class="edge">
<title>Node1&#45;&gt;Node2</title>
<g id="a_edge1_Node000001_Node000002"><a xlink:title=" ">
<path fill="none" stroke="#63b8ff" d="M367.51,-15C359.14,-15 350.53,-15 342.02,-15"/>
<polygon fill="#63b8ff" stroke="#63b8ff" points="367.59,-18.5 377.59,-15 367.59,-11.5 367.59,-18.5"/>
</a>
</g>
</g>
<!-- Node3 -->
<g id="Node000003" class="node">
<title>Node3</title>
<g id="a_Node000003"><a xlink:href="diagnostic_8c.html#afa994a86f133db5dbe1e009caad44e85" target="_top" xlink:title="Handle LIN diagnostic service &quot;ReadDataByIdentifier&quot; (0x22).">
<polygon fill="white" stroke="#666666" points="145,-24.5 0,-24.5 0,-5.5 145,-5.5 145,-24.5"/>
<text text-anchor="middle" x="72.5" y="-12.5" font-family="Helvetica,sans-Serif" font-size="10.00">ApplLinDiagReadDataById</text>
</a>
</g>
</g>
<!-- Node2&#45;&gt;Node3 -->
<g id="edge2_Node000002_Node000003" class="edge">
<title>Node2&#45;&gt;Node3</title>
<g id="a_edge2_Node000002_Node000003"><a xlink:title=" ">
<path fill="none" stroke="#63b8ff" d="M170.8,-15C162.15,-15 153.45,-15 145.01,-15"/>
<polygon fill="#63b8ff" stroke="#63b8ff" points="170.92,-18.5 180.92,-15 170.92,-11.5 170.92,-18.5"/>
</a>
</g>
</g>
</g>
</svg>
