<?xml version="1.0" encoding="UTF-8" standalone="no"?>
<!DOCTYPE svg PUBLIC "-//W3C//DTD SVG 1.1//EN"
 "http://www.w3.org/Graphics/SVG/1.1/DTD/svg11.dtd">
<!-- Generated by graphviz version 2.43.0 (0)
 -->
<!-- Title: ApplLinDiagReadDataById Pages: 1 -->
<!--zoomable 175 -->

<svg id="main" version="1.1" xmlns="http://www.w3.org/2000/svg" xmlns:xlink="http://www.w3.org/1999/xlink" xml:space="preserve" onload="init(evt)">
<style type="text/css"><![CDATA[
.node, .edge {opacity: 0.7;}
.node.selected, .edge.selected {opacity: 1;}
.edge:hover path { stroke: red; }
.edge:hover polygon { stroke: red; fill: red; }
]]></style>

<defs>
  <circle id="rim" cx="0" cy="0" r="7"/>
  <circle id="rim2" cx="0" cy="0" r="3.5"/>
  <g id="zoomPlus">
    <use xlink:href="#rim" fill="#404040"><set attributeName="fill" to="#808080" begin="zoomplus.mouseover" end="zoomplus.mouseout"/></use>
    <path d="M-4,0h8M0,-4v8" fill="none" stroke="white" stroke-width="1.5" pointer-events="none"/>
  </g>
  <g id="zoomMin">
    <use xlink:href="#rim" fill="#404040"><set attributeName="fill" to="#808080" begin="zoomminus.mouseover" end="zoomminus.mouseout"/></use>
    <path d="M-4,0h8" fill="none" stroke="white" stroke-width="1.5" pointer-events="none"/>
  </g>
  <g id="arrowUp" transform="translate(30 24)">
    <use xlink:href="#rim"/>
    <path pointer-events="none" fill="none" stroke="white" stroke-width="1.5" d="M0,-3.0v7 M-2.5,-0.5L0,-3.0L2.5,-0.5"/>
  </g>
  <g id="arrowRight" transform="rotate(90) translate(36 -43)">
    <use xlink:href="#rim"/>
    <path pointer-events="none" fill="none" stroke="white" stroke-width="1.5" d="M0,-3.0v7 M-2.5,-0.5L0,-3.0L2.5,-0.5"/>
  </g>
  <g id="arrowDown" transform="rotate(180) translate(-30 -48)">
    <use xlink:href="#rim"/>
    <path pointer-events="none" fill="none" stroke="white" stroke-width="1.5" d="M0,-3.0v7 M-2.5,-0.5L0,-3.0L2.5,-0.5"/>
  </g>
  <g id="arrowLeft" transform="rotate(270) translate(-36 17)">
    <use xlink:href="#rim"/>
    <path pointer-events="none" fill="none" stroke="white" stroke-width="1.5" d="M0,-3.0v7 M-2.5,-0.5L0,-3.0L2.5,-0.5"/>
  </g>
  <g id="resetDef">
    <use xlink:href="#rim2" fill="#404040"><set attributeName="fill" to="#808080" begin="reset.mouseover" end="reset.mouseout"/></use>
  </g>
</defs>
<script type="application/ecmascript">
var viewWidth = 527;
var viewHeight = 175;
var sectionId = 'dynsection-2';
</script>
<script type="application/ecmascript" xlink:href="svg.min.js"/>
<svg id="graph" class="graph">
<g id="viewport">
<title>ApplLinDiagReadDataById</title>
<!-- Node1 -->
<g id="Node000001" class="node">
<title>Node1</title>
<g id="a_Node000001"><a xlink:title="Handle LIN diagnostic service &quot;ReadDataByIdentifier&quot; (0x22).">
<polygon fill="#999999" stroke="#666666" points="145,-93 0,-93 0,-74 145,-74 145,-93"/>
<text text-anchor="middle" x="72.5" y="-81" font-family="Helvetica,sans-Serif" font-size="10.00">ApplLinDiagReadDataById</text>
</a>
</g>
</g>
<!-- Node2 -->
<g id="Node000002" class="node">
<title>Node2</title>
<g id="a_Node000002"><a xlink:href="diagnostic__cfg_8c.html#ad158936d88b7d913d4ba0f10bae535a2" target="_top" xlink:title=" ">
<polygon fill="white" stroke="#666666" points="312,-167 211,-167 211,-148 312,-148 312,-167"/>
<text text-anchor="middle" x="261.5" y="-155" font-family="Helvetica,sans-Serif" font-size="10.00">checkCurrentNad</text>
</a>
</g>
</g>
<!-- Node1&#45;&gt;Node2 -->
<g id="edge1_Node000001_Node000002" class="edge">
<title>Node1&#45;&gt;Node2</title>
<g id="a_edge1_Node000001_Node000002"><a xlink:title=" ">
<path fill="none" stroke="#63b8ff" d="M88.94,-93.18C109.31,-105.55 146.62,-126.89 181,-139.5 187.34,-141.82 194.07,-143.91 200.84,-145.76"/>
<polygon fill="#63b8ff" stroke="#63b8ff" points="200.18,-149.2 210.73,-148.3 201.92,-142.42 200.18,-149.2"/>
</a>
</g>
</g>
<!-- Node3 -->
<g id="Node000003" class="node">
<title>Node3</title>
<g id="a_Node000003"><a xlink:href="diagnostic__cfg_8c.html#a6c372cd2d55d665a5a86e8eedc5ac715" target="_top" xlink:title=" ">
<polygon fill="white" stroke="#666666" points="322.5,-130 200.5,-130 200.5,-111 322.5,-111 322.5,-130"/>
<text text-anchor="middle" x="261.5" y="-118" font-family="Helvetica,sans-Serif" font-size="10.00">checkMsgDataLength</text>
</a>
</g>
</g>
<!-- Node1&#45;&gt;Node3 -->
<g id="edge2_Node000001_Node000003" class="edge">
<title>Node1&#45;&gt;Node3</title>
<g id="a_edge2_Node000001_Node000003"><a xlink:title=" ">
<path fill="none" stroke="#63b8ff" d="M121.66,-93.03C146.21,-97.89 176.27,-103.83 202.13,-108.95"/>
<polygon fill="#63b8ff" stroke="#63b8ff" points="201.69,-112.43 212.18,-110.94 203.05,-105.57 201.69,-112.43"/>
</a>
</g>
</g>
<!-- Node4 -->
<g id="Node000004" class="node">
<title>Node4</title>
<g id="a_Node000004"><a xlink:href="diagnostic__cfg_8c.html#a975b0982a9f89e799a8a951d119b5805" target="_top" xlink:title=" ">
<polygon fill="white" stroke="#666666" points="342,-93 181,-93 181,-74 342,-74 342,-93"/>
<text text-anchor="middle" x="261.5" y="-81" font-family="Helvetica,sans-Serif" font-size="10.00">getHandlersForReadDataById</text>
</a>
</g>
</g>
<!-- Node1&#45;&gt;Node4 -->
<g id="edge3_Node000001_Node000004" class="edge">
<title>Node1&#45;&gt;Node4</title>
<g id="a_edge3_Node000001_Node000004"><a xlink:title=" ">
<path fill="none" stroke="#63b8ff" d="M145.26,-83.5C153.63,-83.5 162.24,-83.5 170.81,-83.5"/>
<polygon fill="#63b8ff" stroke="#63b8ff" points="170.83,-87 180.83,-83.5 170.83,-80 170.83,-87"/>
</a>
</g>
</g>
<!-- Node7 -->
<g id="Node000007" class="node">
<title>Node7</title>
<g id="a_Node000007"><a xlink:href="diagnostic_8c.html#a7a1b596d1ff4b5d45331d4d234e100b0" target="_top" xlink:title=" ">
<polygon fill="white" stroke="#666666" points="333.5,-56 189.5,-56 189.5,-37 333.5,-37 333.5,-56"/>
<text text-anchor="middle" x="261.5" y="-44" font-family="Helvetica,sans-Serif" font-size="10.00">LinDiagSendNegResponse</text>
</a>
</g>
</g>
<!-- Node1&#45;&gt;Node7 -->
<g id="edge6_Node000001_Node000007" class="edge">
<title>Node1&#45;&gt;Node7</title>
<g id="a_edge6_Node000001_Node000007"><a xlink:title=" ">
<path fill="none" stroke="#63b8ff" d="M121.66,-73.97C146.21,-69.11 176.27,-63.17 202.13,-58.05"/>
<polygon fill="#63b8ff" stroke="#63b8ff" points="203.05,-61.43 212.18,-56.06 201.69,-54.57 203.05,-61.43"/>
</a>
</g>
</g>
<!-- Node8 -->
<g id="Node000008" class="node">
<title>Node8</title>
<g id="a_Node000008"><a xlink:href="diagnostic_8c.html#adeef6dd72bd779ad261090c13a440525" target="_top" xlink:title=" ">
<polygon fill="white" stroke="#666666" points="332.5,-19 190.5,-19 190.5,0 332.5,0 332.5,-19"/>
<text text-anchor="middle" x="261.5" y="-7" font-family="Helvetica,sans-Serif" font-size="10.00">LinDiagSendPosResponse</text>
</a>
</g>
</g>
<!-- Node1&#45;&gt;Node8 -->
<g id="edge7_Node000001_Node000008" class="edge">
<title>Node1&#45;&gt;Node8</title>
<g id="a_edge7_Node000001_Node000008"><a xlink:title=" ">
<path fill="none" stroke="#63b8ff" d="M88.94,-73.82C109.31,-61.45 146.62,-40.11 181,-27.5 186.93,-25.33 193.21,-23.36 199.53,-21.6"/>
<polygon fill="#63b8ff" stroke="#63b8ff" points="200.68,-24.92 209.47,-19 198.91,-18.15 200.68,-24.92"/>
</a>
</g>
</g>
<!-- Node5 -->
<g id="Node000005" class="node">
<title>Node5</title>
<g id="a_Node000005"><a xlink:href="diagnostic__cfg_8c.html#ae108d0401f813aac27f8da5a3322c2ce" target="_top" xlink:title=" ">
<polygon fill="white" stroke="#666666" points="519,-122.5 378,-122.5 378,-92.5 519,-92.5 519,-122.5"/>
<text text-anchor="start" x="386" y="-110.5" font-family="Helvetica,sans-Serif" font-size="10.00">RdbiVhitOverVoltageFault</text>
<text text-anchor="middle" x="448.5" y="-99.5" font-family="Helvetica,sans-Serif" font-size="10.00">Diag_</text>
</a>
</g>
</g>
<!-- Node4&#45;&gt;Node5 -->
<g id="edge4_Node000004_Node000005" class="edge">
<title>Node4&#45;&gt;Node5</title>
<g id="a_edge4_Node000004_Node000005"><a xlink:title=" ">
<path fill="none" stroke="#63b8ff" d="M335.88,-93.02C346.36,-94.38 357.17,-95.78 367.76,-97.16"/>
<polygon fill="#63b8ff" stroke="#63b8ff" points="367.46,-100.65 377.82,-98.46 368.36,-93.7 367.46,-100.65"/>
</a>
</g>
</g>
<!-- Node6 -->
<g id="Node000006" class="node">
<title>Node6</title>
<g id="a_Node000006"><a xlink:href="diagnostic__cfg_8c.html#a0e7b09558e42537166405d1da055e90d" target="_top" xlink:title=" ">
<polygon fill="white" stroke="#666666" points="508,-74.5 389,-74.5 389,-44.5 508,-44.5 508,-74.5"/>
<text text-anchor="start" x="397" y="-62.5" font-family="Helvetica,sans-Serif" font-size="10.00">Subfunction_Request</text>
<text text-anchor="middle" x="448.5" y="-51.5" font-family="Helvetica,sans-Serif" font-size="10.00">_Out_Of_Range</text>
</a>
</g>
</g>
<!-- Node4&#45;&gt;Node6 -->
<g id="edge5_Node000004_Node000006" class="edge">
<title>Node4&#45;&gt;Node6</title>
<g id="a_edge5_Node000004_Node000006"><a xlink:title=" ">
<path fill="none" stroke="#63b8ff" d="M335.88,-73.98C350.01,-72.15 364.75,-70.23 378.73,-68.42"/>
<polygon fill="#63b8ff" stroke="#63b8ff" points="379.28,-71.88 388.74,-67.12 378.38,-64.94 379.28,-71.88"/>
</a>
</g>
</g>
</g>
</svg>

<g id="navigator" transform="translate(0 0)" fill="#404254">
  <rect fill="#f2f5e9" fill-opacity="0.5" stroke="#606060" stroke-width=".5" x="0" y="0" width="60" height="60"/>
  <use id="zoomplus" xlink:href="#zoomPlus" x="17" y="9" onmousedown="handleZoom(evt,'in')"/>
  <use id="zoomminus" xlink:href="#zoomMin" x="42" y="9" onmousedown="handleZoom(evt,'out')"/>
  <use id="reset" xlink:href="#resetDef" x="30" y="36" onmousedown="handleReset()"/>
   <use id="arrowup" xlink:href="#arrowUp" x="0" y="0" onmousedown="handlePan(0,-1)"/>
  <use id="arrowright" xlink:href="#arrowRight" x="0" y="0" onmousedown="handlePan(1,0)"/>
  <use id="arrowdown" xlink:href="#arrowDown" x="0" y="0" onmousedown="handlePan(0,1)"/>
  <use id="arrowleft" xlink:href="#arrowLeft" x="0" y="0" onmousedown="handlePan(-1,0)"/>
</g>
<svg viewBox="0 0 15 15" width="100%" height="30px" preserveAspectRatio="xMaxYMin meet">
 <g id="arrow_out" transform="scale(0.3 0.3)">
  <a xlink:href="diagnostic_8h_afa994a86f133db5dbe1e009caad44e85_cgraph_org.svg" target="_base">
   <rect id="button" ry="5" rx="5" y="6" x="6" height="38" width="38"
        fill="#f2f5e9" fill-opacity="0.5" stroke="#606060" stroke-width="1.0"/>
   <path id="arrow"
     d="M 11.500037,31.436501 C 11.940474,20.09759 22.043105,11.32322 32.158766,21.979434 L 37.068811,17.246167 C 37.068811,17.246167 37.088388,32 37.088388,32 L 22.160133,31.978069 C 22.160133,31.978069 26.997745,27.140456 26.997745,27.140456 C 18.528582,18.264221 13.291696,25.230495 11.500037,31.436501 z"
     style="fill:#404040;"/>
  </a>
 </g>
</svg>

<style type='text/css'>
<![CDATA[
[data-mouse-over-selected='false'] { opacity: 0.7; }
[data-mouse-over-selected='true']  { opacity: 1.0; }
]]>
</style>
<script type="application/ecmascript"><![CDATA[
document.addEventListener('DOMContentLoaded', (event) => {
  highlightEdges();
  highlightAdjacentNodes();
});
]]></script>
</svg>
