<?xml version="1.0" encoding="UTF-8" standalone="no"?>
<!DOCTYPE svg PUBLIC "-//W3C//DTD SVG 1.1//EN"
 "http://www.w3.org/Graphics/SVG/1.1/DTD/svg11.dtd">
<!-- Generated by graphviz version 2.43.0 (0)
 -->
<!-- Title: ApplLinDiagReadDataById Pages: 1 -->
<svg width="565pt" height="175pt"
 viewBox="0.00 0.00 565.00 175.00" xmlns="http://www.w3.org/2000/svg" xmlns:xlink="http://www.w3.org/1999/xlink">
<g id="graph0" class="graph" transform="scale(1 1) rotate(0) translate(4 171)">
<title>ApplLinDiagReadDataById</title>
<!-- Node1 -->
<g id="Node000001" class="node">
<title>Node1</title>
<g id="a_Node000001"><a xlink:title="Handle LIN diagnostic service &quot;ReadDataByIdentifier&quot; (0x22).">
<polygon fill="#999999" stroke="#666666" points="145,-93 0,-93 0,-74 145,-74 145,-93"/>
<text text-anchor="middle" x="72.5" y="-81" font-family="Helvetica,sans-Serif" font-size="10.00">ApplLinDiagReadDataById</text>
</a>
</g>
</g>
<!-- Node2 -->
<g id="Node000002" class="node">
<title>Node2</title>
<g id="a_Node000002"><a xlink:href="group__DiagnosticCfgModule.html#gad158936d88b7d913d4ba0f10bae535a2" target="_top" xlink:title=" ">
<polygon fill="white" stroke="#666666" points="312,-167 211,-167 211,-148 312,-148 312,-167"/>
<text text-anchor="middle" x="261.5" y="-155" font-family="Helvetica,sans-Serif" font-size="10.00">checkCurrentNad</text>
</a>
</g>
</g>
<!-- Node1&#45;&gt;Node2 -->
<g id="edge1_Node000001_Node000002" class="edge">
<title>Node1&#45;&gt;Node2</title>
<g id="a_edge1_Node000001_Node000002"><a xlink:title=" ">
<path fill="none" stroke="#63b8ff" d="M88.94,-93.18C109.31,-105.55 146.62,-126.89 181,-139.5 187.34,-141.82 194.07,-143.91 200.84,-145.76"/>
<polygon fill="#63b8ff" stroke="#63b8ff" points="200.18,-149.2 210.73,-148.3 201.92,-142.42 200.18,-149.2"/>
</a>
</g>
</g>
<!-- Node3 -->
<g id="Node000003" class="node">
<title>Node3</title>
<g id="a_Node000003"><a xlink:href="group__DiagnosticCfgModule.html#ga6c372cd2d55d665a5a86e8eedc5ac715" target="_top" xlink:title="Validate the received LIN diagnostic message length.">
<polygon fill="white" stroke="#666666" points="322.5,-130 200.5,-130 200.5,-111 322.5,-111 322.5,-130"/>
<text text-anchor="middle" x="261.5" y="-118" font-family="Helvetica,sans-Serif" font-size="10.00">checkMsgDataLength</text>
</a>
</g>
</g>
<!-- Node1&#45;&gt;Node3 -->
<g id="edge2_Node000001_Node000003" class="edge">
<title>Node1&#45;&gt;Node3</title>
<g id="a_edge2_Node000001_Node000003"><a xlink:title=" ">
<path fill="none" stroke="#63b8ff" d="M121.66,-93.03C146.21,-97.89 176.27,-103.83 202.13,-108.95"/>
<polygon fill="#63b8ff" stroke="#63b8ff" points="201.69,-112.43 212.18,-110.94 203.05,-105.57 201.69,-112.43"/>
</a>
</g>
</g>
<!-- Node4 -->
<g id="Node000004" class="node">
<title>Node4</title>
<g id="a_Node000004"><a xlink:href="group__DiagnosticCfgModule.html#ga9029039986a6e787abd7c3bd809e83a3" target="_top" xlink:title="Dispatch the handler associated with a ReadDataByIdentifier DID request.">
<polygon fill="white" stroke="#666666" points="342,-93 181,-93 181,-74 342,-74 342,-93"/>
<text text-anchor="middle" x="261.5" y="-81" font-family="Helvetica,sans-Serif" font-size="10.00">getHandlersForReadDataById</text>
</a>
</g>
</g>
<!-- Node1&#45;&gt;Node4 -->
<g id="edge3_Node000001_Node000004" class="edge">
<title>Node1&#45;&gt;Node4</title>
<g id="a_edge3_Node000001_Node000004"><a xlink:title=" ">
<path fill="none" stroke="#63b8ff" d="M145.26,-83.5C153.63,-83.5 162.24,-83.5 170.81,-83.5"/>
<polygon fill="#63b8ff" stroke="#63b8ff" points="170.83,-87 180.83,-83.5 170.83,-80 170.83,-87"/>
</a>
</g>
</g>
<!-- Node7 -->
<g id="Node000007" class="node">
<title>Node7</title>
<g id="a_Node000007"><a xlink:href="diagnostic_8c.html#a7a1b596d1ff4b5d45331d4d234e100b0" target="_top" xlink:title=" ">
<polygon fill="white" stroke="#666666" points="333.5,-56 189.5,-56 189.5,-37 333.5,-37 333.5,-56"/>
<text text-anchor="middle" x="261.5" y="-44" font-family="Helvetica,sans-Serif" font-size="10.00">LinDiagSendNegResponse</text>
</a>
</g>
</g>
<!-- Node1&#45;&gt;Node7 -->
<g id="edge6_Node000001_Node000007" class="edge">
<title>Node1&#45;&gt;Node7</title>
<g id="a_edge6_Node000001_Node000007"><a xlink:title=" ">
<path fill="none" stroke="#63b8ff" d="M121.66,-73.97C146.21,-69.11 176.27,-63.17 202.13,-58.05"/>
<polygon fill="#63b8ff" stroke="#63b8ff" points="203.05,-61.43 212.18,-56.06 201.69,-54.57 203.05,-61.43"/>
</a>
</g>
</g>
<!-- Node8 -->
<g id="Node000008" class="node">
<title>Node8</title>
<g id="a_Node000008"><a xlink:href="diagnostic_8c.html#adeef6dd72bd779ad261090c13a440525" target="_top" xlink:title=" ">
<polygon fill="white" stroke="#666666" points="332.5,-19 190.5,-19 190.5,0 332.5,0 332.5,-19"/>
<text text-anchor="middle" x="261.5" y="-7" font-family="Helvetica,sans-Serif" font-size="10.00">LinDiagSendPosResponse</text>
</a>
</g>
</g>
<!-- Node1&#45;&gt;Node8 -->
<g id="edge7_Node000001_Node000008" class="edge">
<title>Node1&#45;&gt;Node8</title>
<g id="a_edge7_Node000001_Node000008"><a xlink:title=" ">
<path fill="none" stroke="#63b8ff" d="M88.94,-73.82C109.31,-61.45 146.62,-40.11 181,-27.5 186.93,-25.33 193.21,-23.36 199.53,-21.6"/>
<polygon fill="#63b8ff" stroke="#63b8ff" points="200.68,-24.92 209.47,-19 198.91,-18.15 200.68,-24.92"/>
</a>
</g>
</g>
<!-- Node5 -->
<g id="Node000005" class="node">
<title>Node5</title>
<g id="a_Node000005"><a xlink:href="group__DiagnosticCfgModule.html#gae108d0401f813aac27f8da5a3322c2ce" target="_top" xlink:title="DID handler that provides the Over Voltage Fault diagnostic information.">
<polygon fill="white" stroke="#666666" points="538,-119.5 397,-119.5 397,-89.5 538,-89.5 538,-119.5"/>
<text text-anchor="start" x="405" y="-107.5" font-family="Helvetica,sans-Serif" font-size="10.00">RdbiVhitOverVoltageFault</text>
<text text-anchor="middle" x="467.5" y="-96.5" font-family="Helvetica,sans-Serif" font-size="10.00">Diag_</text>
</a>
</g>
</g>
<!-- Node4&#45;&gt;Node5 -->
<g id="edge4_Node000004_Node000005" class="edge">
<title>Node4&#45;&gt;Node5</title>
<g id="a_edge4_Node000004_Node000005"><a xlink:title=" ">
<path fill="none" stroke="#63b8ff" d="M342.25,-91.71C356.87,-93.21 372.13,-94.79 386.74,-96.29"/>
<polygon fill="#63b8ff" stroke="#63b8ff" points="386.44,-99.78 396.75,-97.32 387.16,-92.81 386.44,-99.78"/>
</a>
</g>
</g>
<!-- Node6 -->
<g id="Node000006" class="node">
<title>Node6</title>
<g id="a_Node000006"><a xlink:href="group__DiagnosticCfgModule.html#ga623602ac7db748ce50de86c75b512405" target="_top" xlink:title="Default DID handler used for unsupported requests (&quot;Request Out Of Range&quot;).">
<polygon fill="white" stroke="#666666" points="557,-71 378,-71 378,-52 557,-52 557,-71"/>
<text text-anchor="middle" x="467.5" y="-59" font-family="Helvetica,sans-Serif" font-size="10.00">SubfunctionRequestOutOfRange_</text>
</a>
</g>
</g>
<!-- Node4&#45;&gt;Node6 -->
<g id="edge5_Node000004_Node000006" class="edge">
<title>Node4&#45;&gt;Node6</title>
<g id="a_edge5_Node000004_Node000006"><a xlink:title=" ">
<path fill="none" stroke="#63b8ff" d="M342.25,-74.9C350.76,-73.98 359.49,-73.04 368.19,-72.1"/>
<polygon fill="#63b8ff" stroke="#63b8ff" points="368.8,-75.56 378.37,-71 368.05,-68.6 368.8,-75.56"/>
</a>
</g>
</g>
</g>
</svg>
