<?xml version="1.0" encoding="UTF-8" standalone="no"?>
<!DOCTYPE svg PUBLIC "-//W3C//DTD SVG 1.1//EN"
 "http://www.w3.org/Graphics/SVG/1.1/DTD/svg11.dtd">
<!-- Generated by graphviz version 2.43.0 (0)
 -->
<!-- Title: cfg/diagnostic_cfg.h Pages: 1 -->
<svg width="294pt" height="148pt"
 viewBox="0.00 0.00 294.00 148.00" xmlns="http://www.w3.org/2000/svg" xmlns:xlink="http://www.w3.org/1999/xlink">
<g id="graph0" class="graph" transform="scale(1 1) rotate(0) translate(4 144)">
<title>cfg/diagnostic_cfg.h</title>
<!-- Node1 -->
<g id="Node000001" class="node">
<title>Node1</title>
<g id="a_Node000001"><a xlink:title=" ">
<polygon fill="#999999" stroke="#666666" points="153.5,-140 39.5,-140 39.5,-121 153.5,-121 153.5,-140"/>
<text text-anchor="middle" x="96.5" y="-128" font-family="Helvetica,sans-Serif" font-size="10.00">cfg/diagnostic_cfg.h</text>
</a>
</g>
</g>
<!-- Node2 -->
<g id="Node000002" class="node">
<title>Node2</title>
<g id="a_Node000002"><a xlink:href="diagnostic__cfg_8c.html" target="_top" xlink:title=" ">
<polygon fill="white" stroke="#666666" points="113,-19 0,-19 0,0 113,0 113,-19"/>
<text text-anchor="middle" x="56.5" y="-7" font-family="Helvetica,sans-Serif" font-size="10.00">cfg/diagnostic_cfg.c</text>
</a>
</g>
</g>
<!-- Node1&#45;&gt;Node2 -->
<g id="edge1_Node000001_Node000002" class="edge">
<title>Node1&#45;&gt;Node2</title>
<g id="a_edge1_Node000001_Node000002"><a xlink:title=" ">
<path fill="none" stroke="#63b8ff" d="M67.15,-116.22C54.69,-108.93 41.46,-98.56 34.5,-85 23.05,-62.68 39.85,-33.47 49.9,-19.16"/>
<polygon fill="#63b8ff" stroke="#63b8ff" points="65.52,-119.32 75.98,-121 68.85,-113.16 65.52,-119.32"/>
</a>
</g>
</g>
<!-- Node3 -->
<g id="Node000003" class="node">
<title>Node3</title>
<g id="a_Node000003"><a xlink:href="diagnostic__cfg__priv_8h.html" target="_top" xlink:title=" ">
<polygon fill="white" stroke="#666666" points="149,-85 44,-85 44,-55 149,-55 149,-85"/>
<text text-anchor="start" x="52" y="-73" font-family="Helvetica,sans-Serif" font-size="10.00">cfg/diagnostic_cfg</text>
<text text-anchor="middle" x="96.5" y="-62" font-family="Helvetica,sans-Serif" font-size="10.00">_priv.h</text>
</a>
</g>
</g>
<!-- Node1&#45;&gt;Node3 -->
<g id="edge2_Node000001_Node000003" class="edge">
<title>Node1&#45;&gt;Node3</title>
<g id="a_edge2_Node000001_Node000003"><a xlink:title=" ">
<path fill="none" stroke="#63b8ff" d="M96.5,-110.65C96.5,-102.36 96.5,-92.78 96.5,-85.11"/>
<polygon fill="#63b8ff" stroke="#63b8ff" points="93,-110.87 96.5,-120.87 100,-110.87 93,-110.87"/>
</a>
</g>
</g>
<!-- Node4 -->
<g id="Node000004" class="node">
<title>Node4</title>
<g id="a_Node000004"><a xlink:href="diagnostic__priv_8h.html" target="_top" xlink:title=" ">
<polygon fill="white" stroke="#666666" points="286,-79.5 167,-79.5 167,-60.5 286,-60.5 286,-79.5"/>
<text text-anchor="middle" x="226.5" y="-67.5" font-family="Helvetica,sans-Serif" font-size="10.00">pltf/diagnostic_priv.h</text>
</a>
</g>
</g>
<!-- Node1&#45;&gt;Node4 -->
<g id="edge4_Node000001_Node000004" class="edge">
<title>Node1&#45;&gt;Node4</title>
<g id="a_edge4_Node000001_Node000004"><a xlink:title=" ">
<path fill="none" stroke="#63b8ff" d="M124.76,-116.78C149.85,-105.49 185.81,-89.31 207.57,-79.52"/>
<polygon fill="#63b8ff" stroke="#63b8ff" points="123.09,-113.7 115.4,-120.99 125.96,-120.08 123.09,-113.7"/>
</a>
</g>
</g>
<!-- Node3&#45;&gt;Node2 -->
<g id="edge3_Node000003_Node000002" class="edge">
<title>Node3&#45;&gt;Node2</title>
<g id="a_edge3_Node000003_Node000002"><a xlink:title=" ">
<path fill="none" stroke="#63b8ff" d="M81.12,-46.51C74.61,-36.99 67.42,-26.47 62.49,-19.27"/>
<polygon fill="#63b8ff" stroke="#63b8ff" points="78.28,-48.56 86.82,-54.84 84.06,-44.61 78.28,-48.56"/>
</a>
</g>
</g>
<!-- Node5 -->
<g id="Node000005" class="node">
<title>Node5</title>
<g id="a_Node000005"><a xlink:href="diagnostic_8c.html" target="_top" xlink:title=" ">
<polygon fill="white" stroke="#666666" points="274,-19 179,-19 179,0 274,0 274,-19"/>
<text text-anchor="middle" x="226.5" y="-7" font-family="Helvetica,sans-Serif" font-size="10.00">pltf/diagnostic.c</text>
</a>
</g>
</g>
<!-- Node4&#45;&gt;Node5 -->
<g id="edge5_Node000004_Node000005" class="edge">
<title>Node4&#45;&gt;Node5</title>
<g id="a_edge5_Node000004_Node000005"><a xlink:title=" ">
<path fill="none" stroke="#63b8ff" d="M226.5,-50.16C226.5,-39.74 226.5,-27.3 226.5,-19.17"/>
<polygon fill="#63b8ff" stroke="#63b8ff" points="223,-50.37 226.5,-60.37 230,-50.37 223,-50.37"/>
</a>
</g>
</g>
</g>
</svg>
