<?xml version="1.0" encoding="UTF-8" standalone="no"?>
<!DOCTYPE svg PUBLIC "-//W3C//DTD SVG 1.1//EN"
 "http://www.w3.org/Graphics/SVG/1.1/DTD/svg11.dtd">
<!-- Generated by graphviz version 2.43.0 (0)
 -->
<!-- Title: ApplLinDiagReadDataById Pages: 1 -->
<svg width="527pt" height="175pt"
 viewBox="0.00 0.00 527.00 175.00" xmlns="http://www.w3.org/2000/svg" xmlns:xlink="http://www.w3.org/1999/xlink">
<g id="graph0" class="graph" transform="scale(1 1) rotate(0) translate(4 171)">
<title>ApplLinDiagReadDataById</title>
<!-- Node1 -->
<g id="Node000001" class="node">
<title>Node1</title>
<g id="a_Node000001"><a xlink:title="Handle LIN diagnostic service &quot;ReadDataByIdentifier&quot; (0x22).">
<polygon fill="#999999" stroke="#666666" points="145,-93 0,-93 0,-74 145,-74 145,-93"/>
<text text-anchor="middle" x="72.5" y="-81" font-family="Helvetica,sans-Serif" font-size="10.00">ApplLinDiagReadDataById</text>
</a>
</g>
</g>
<!-- Node2 -->
<g id="Node000002" class="node">
<title>Node2</title>
<g id="a_Node000002"><a xlink:href="diagnostic__cfg_8c.html#ad158936d88b7d913d4ba0f10bae535a2" target="_top" xlink:title=" ">
<polygon fill="white" stroke="#666666" points="312,-167 211,-167 211,-148 312,-148 312,-167"/>
<text text-anchor="middle" x="261.5" y="-155" font-family="Helvetica,sans-Serif" font-size="10.00">checkCurrentNad</text>
</a>
</g>
</g>
<!-- Node1&#45;&gt;Node2 -->
<g id="edge1_Node000001_Node000002" class="edge">
<title>Node1&#45;&gt;Node2</title>
<g id="a_edge1_Node000001_Node000002"><a xlink:title=" ">
<path fill="none" stroke="#63b8ff" d="M88.94,-93.18C109.31,-105.55 146.62,-126.89 181,-139.5 187.34,-141.82 194.07,-143.91 200.84,-145.76"/>
<polygon fill="#63b8ff" stroke="#63b8ff" points="200.18,-149.2 210.73,-148.3 201.92,-142.42 200.18,-149.2"/>
</a>
</g>
</g>
<!-- Node3 -->
<g id="Node000003" class="node">
<title>Node3</title>
<g id="a_Node000003"><a xlink:href="diagnostic__cfg_8c.html#a6c372cd2d55d665a5a86e8eedc5ac715" target="_top" xlink:title=" ">
<polygon fill="white" stroke="#666666" points="322.5,-130 200.5,-130 200.5,-111 322.5,-111 322.5,-130"/>
<text text-anchor="middle" x="261.5" y="-118" font-family="Helvetica,sans-Serif" font-size="10.00">checkMsgDataLength</text>
</a>
</g>
</g>
<!-- Node1&#45;&gt;Node3 -->
<g id="edge2_Node000001_Node000003" class="edge">
<title>Node1&#45;&gt;Node3</title>
<g id="a_edge2_Node000001_Node000003"><a xlink:title=" ">
<path fill="none" stroke="#63b8ff" d="M121.66,-93.03C146.21,-97.89 176.27,-103.83 202.13,-108.95"/>
<polygon fill="#63b8ff" stroke="#63b8ff" points="201.69,-112.43 212.18,-110.94 203.05,-105.57 201.69,-112.43"/>
</a>
</g>
</g>
<!-- Node4 -->
<g id="Node000004" class="node">
<title>Node4</title>
<g id="a_Node000004"><a xlink:href="diagnostic__cfg_8c.html#a975b0982a9f89e799a8a951d119b5805" target="_top" xlink:title=" ">
<polygon fill="white" stroke="#666666" points="342,-93 181,-93 181,-74 342,-74 342,-93"/>
<text text-anchor="middle" x="261.5" y="-81" font-family="Helvetica,sans-Serif" font-size="10.00">getHandlersForReadDataById</text>
</a>
</g>
</g>
<!-- Node1&#45;&gt;Node4 -->
<g id="edge3_Node000001_Node000004" class="edge">
<title>Node1&#45;&gt;Node4</title>
<g id="a_edge3_Node000001_Node000004"><a xlink:title=" ">
<path fill="none" stroke="#63b8ff" d="M145.26,-83.5C153.63,-83.5 162.24,-83.5 170.81,-83.5"/>
<polygon fill="#63b8ff" stroke="#63b8ff" points="170.83,-87 180.83,-83.5 170.83,-80 170.83,-87"/>
</a>
</g>
</g>
<!-- Node7 -->
<g id="Node000007" class="node">
<title>Node7</title>
<g id="a_Node000007"><a xlink:href="diagnostic_8c.html#a7a1b596d1ff4b5d45331d4d234e100b0" target="_top" xlink:title=" ">
<polygon fill="white" stroke="#666666" points="333.5,-56 189.5,-56 189.5,-37 333.5,-37 333.5,-56"/>
<text text-anchor="middle" x="261.5" y="-44" font-family="Helvetica,sans-Serif" font-size="10.00">LinDiagSendNegResponse</text>
</a>
</g>
</g>
<!-- Node1&#45;&gt;Node7 -->
<g id="edge6_Node000001_Node000007" class="edge">
<title>Node1&#45;&gt;Node7</title>
<g id="a_edge6_Node000001_Node000007"><a xlink:title=" ">
<path fill="none" stroke="#63b8ff" d="M121.66,-73.97C146.21,-69.11 176.27,-63.17 202.13,-58.05"/>
<polygon fill="#63b8ff" stroke="#63b8ff" points="203.05,-61.43 212.18,-56.06 201.69,-54.57 203.05,-61.43"/>
</a>
</g>
</g>
<!-- Node8 -->
<g id="Node000008" class="node">
<title>Node8</title>
<g id="a_Node000008"><a xlink:href="diagnostic_8c.html#adeef6dd72bd779ad261090c13a440525" target="_top" xlink:title=" ">
<polygon fill="white" stroke="#666666" points="332.5,-19 190.5,-19 190.5,0 332.5,0 332.5,-19"/>
<text text-anchor="middle" x="261.5" y="-7" font-family="Helvetica,sans-Serif" font-size="10.00">LinDiagSendPosResponse</text>
</a>
</g>
</g>
<!-- Node1&#45;&gt;Node8 -->
<g id="edge7_Node000001_Node000008" class="edge">
<title>Node1&#45;&gt;Node8</title>
<g id="a_edge7_Node000001_Node000008"><a xlink:title=" ">
<path fill="none" stroke="#63b8ff" d="M88.94,-73.82C109.31,-61.45 146.62,-40.11 181,-27.5 186.93,-25.33 193.21,-23.36 199.53,-21.6"/>
<polygon fill="#63b8ff" stroke="#63b8ff" points="200.68,-24.92 209.47,-19 198.91,-18.15 200.68,-24.92"/>
</a>
</g>
</g>
<!-- Node5 -->
<g id="Node000005" class="node">
<title>Node5</title>
<g id="a_Node000005"><a xlink:href="diagnostic__cfg_8c.html#ae108d0401f813aac27f8da5a3322c2ce" target="_top" xlink:title=" ">
<polygon fill="white" stroke="#666666" points="519,-122.5 378,-122.5 378,-92.5 519,-92.5 519,-122.5"/>
<text text-anchor="start" x="386" y="-110.5" font-family="Helvetica,sans-Serif" font-size="10.00">RdbiVhitOverVoltageFault</text>
<text text-anchor="middle" x="448.5" y="-99.5" font-family="Helvetica,sans-Serif" font-size="10.00">Diag_</text>
</a>
</g>
</g>
<!-- Node4&#45;&gt;Node5 -->
<g id="edge4_Node000004_Node000005" class="edge">
<title>Node4&#45;&gt;Node5</title>
<g id="a_edge4_Node000004_Node000005"><a xlink:title=" ">
<path fill="none" stroke="#63b8ff" d="M335.88,-93.02C346.36,-94.38 357.17,-95.78 367.76,-97.16"/>
<polygon fill="#63b8ff" stroke="#63b8ff" points="367.46,-100.65 377.82,-98.46 368.36,-93.7 367.46,-100.65"/>
</a>
</g>
</g>
<!-- Node6 -->
<g id="Node000006" class="node">
<title>Node6</title>
<g id="a_Node000006"><a xlink:href="diagnostic__cfg_8c.html#a0e7b09558e42537166405d1da055e90d" target="_top" xlink:title=" ">
<polygon fill="white" stroke="#666666" points="508,-74.5 389,-74.5 389,-44.5 508,-44.5 508,-74.5"/>
<text text-anchor="start" x="397" y="-62.5" font-family="Helvetica,sans-Serif" font-size="10.00">Subfunction_Request</text>
<text text-anchor="middle" x="448.5" y="-51.5" font-family="Helvetica,sans-Serif" font-size="10.00">_Out_Of_Range</text>
</a>
</g>
</g>
<!-- Node4&#45;&gt;Node6 -->
<g id="edge5_Node000004_Node000006" class="edge">
<title>Node4&#45;&gt;Node6</title>
<g id="a_edge5_Node000004_Node000006"><a xlink:title=" ">
<path fill="none" stroke="#63b8ff" d="M335.88,-73.98C350.01,-72.15 364.75,-70.23 378.73,-68.42"/>
<polygon fill="#63b8ff" stroke="#63b8ff" points="379.28,-71.88 388.74,-67.12 378.38,-64.94 379.28,-71.88"/>
</a>
</g>
</g>
</g>
</svg>
