<?xml version="1.0" encoding="UTF-8" standalone="no"?>
<!DOCTYPE svg PUBLIC "-//W3C//DTD SVG 1.1//EN"
 "http://www.w3.org/Graphics/SVG/1.1/DTD/svg11.dtd">
<!-- Generated by graphviz version 2.43.0 (0)
 -->
<!-- Title: getHandlersForReadDataById Pages: 1 -->
<svg width="384pt" height="76pt"
 viewBox="0.00 0.00 384.00 75.50" xmlns="http://www.w3.org/2000/svg" xmlns:xlink="http://www.w3.org/1999/xlink">
<g id="graph0" class="graph" transform="scale(1 1) rotate(0) translate(4 71.5)">
<title>getHandlersForReadDataById</title>
<!-- Node1 -->
<g id="Node000001" class="node">
<title>Node1</title>
<g id="a_Node000001"><a xlink:title="Dispatch the handler associated with a ReadDataByIdentifier DID request.">
<polygon fill="#999999" stroke="#666666" points="161,-40 0,-40 0,-21 161,-21 161,-40"/>
<text text-anchor="middle" x="80.5" y="-28" font-family="Helvetica,sans-Serif" font-size="10.00">getHandlersForReadDataById</text>
</a>
</g>
</g>
<!-- Node2 -->
<g id="Node000002" class="node">
<title>Node2</title>
<g id="a_Node000002"><a xlink:href="group__DiagnosticCfgModule.html#gae108d0401f813aac27f8da5a3322c2ce" target="_top" xlink:title="DID handler that provides the Over Voltage Fault diagnostic information.">
<polygon fill="white" stroke="#666666" points="357,-67.5 216,-67.5 216,-37.5 357,-37.5 357,-67.5"/>
<text text-anchor="start" x="224" y="-55.5" font-family="Helvetica,sans-Serif" font-size="10.00">RdbiVhitOverVoltageFault</text>
<text text-anchor="middle" x="286.5" y="-44.5" font-family="Helvetica,sans-Serif" font-size="10.00">Diag_</text>
</a>
</g>
</g>
<!-- Node1&#45;&gt;Node2 -->
<g id="edge1_Node000001_Node000002" class="edge">
<title>Node1&#45;&gt;Node2</title>
<g id="a_edge1_Node000001_Node000002"><a xlink:title=" ">
<path fill="none" stroke="#63b8ff" d="M161.25,-39.1C175.87,-40.68 191.13,-42.32 205.74,-43.9"/>
<polygon fill="#63b8ff" stroke="#63b8ff" points="205.43,-47.39 215.75,-44.98 206.18,-40.43 205.43,-47.39"/>
</a>
</g>
</g>
<!-- Node3 -->
<g id="Node000003" class="node">
<title>Node3</title>
<g id="a_Node000003"><a xlink:href="group__DiagnosticCfgModule.html#ga623602ac7db748ce50de86c75b512405" target="_top" xlink:title="Default DID handler used for unsupported requests (&quot;Request Out Of Range&quot;).">
<polygon fill="white" stroke="#666666" points="376,-19 197,-19 197,0 376,0 376,-19"/>
<text text-anchor="middle" x="286.5" y="-7" font-family="Helvetica,sans-Serif" font-size="10.00">SubfunctionRequestOutOfRange_</text>
</a>
</g>
</g>
<!-- Node1&#45;&gt;Node3 -->
<g id="edge2_Node000001_Node000003" class="edge">
<title>Node1&#45;&gt;Node3</title>
<g id="a_edge2_Node000001_Node000003"><a xlink:title=" ">
<path fill="none" stroke="#63b8ff" d="M161.25,-22.29C169.6,-21.43 178.16,-20.55 186.7,-19.67"/>
<polygon fill="#63b8ff" stroke="#63b8ff" points="187.1,-23.15 196.69,-18.64 186.38,-16.19 187.1,-23.15"/>
</a>
</g>
</g>
</g>
</svg>
