<?xml version="1.0" encoding="UTF-8" standalone="no"?>
<!DOCTYPE svg PUBLIC "-//W3C//DTD SVG 1.1//EN"
 "http://www.w3.org/Graphics/SVG/1.1/DTD/svg11.dtd">
<!-- Generated by graphviz version 2.43.0 (0)
 -->
<!-- Title: SubfunctionRequestOutOfRange_ Pages: 1 -->
<svg width="565pt" height="27pt"
 viewBox="0.00 0.00 565.00 27.00" xmlns="http://www.w3.org/2000/svg" xmlns:xlink="http://www.w3.org/1999/xlink">
<g id="graph0" class="graph" transform="scale(1 1) rotate(0) translate(4 23)">
<title>SubfunctionRequestOutOfRange_</title>
<!-- Node1 -->
<g id="Node000001" class="node">
<title>Node1</title>
<g id="a_Node000001"><a xlink:title="Default DID handler used for unsupported requests (&quot;Request Out Of Range&quot;).">
<polygon fill="#999999" stroke="#666666" points="557,-19 378,-19 378,0 557,0 557,-19"/>
<text text-anchor="middle" x="467.5" y="-7" font-family="Helvetica,sans-Serif" font-size="10.00">SubfunctionRequestOutOfRange_</text>
</a>
</g>
</g>
<!-- Node2 -->
<g id="Node000002" class="node">
<title>Node2</title>
<g id="a_Node000002"><a xlink:href="group__DiagnosticCfgModule.html#ga9029039986a6e787abd7c3bd809e83a3" target="_top" xlink:title="Dispatch the handler associated with a ReadDataByIdentifier DID request.">
<polygon fill="white" stroke="#666666" points="342,-19 181,-19 181,0 342,0 342,-19"/>
<text text-anchor="middle" x="261.5" y="-7" font-family="Helvetica,sans-Serif" font-size="10.00">getHandlersForReadDataById</text>
</a>
</g>
</g>
<!-- Node1&#45;&gt;Node2 -->
<g id="edge1_Node000001_Node000002" class="edge">
<title>Node1&#45;&gt;Node2</title>
<g id="a_edge1_Node000001_Node000002"><a xlink:title=" ">
<path fill="none" stroke="#63b8ff" d="M367.8,-9.5C359.16,-9.5 350.48,-9.5 342.03,-9.5"/>
<polygon fill="#63b8ff" stroke="#63b8ff" points="367.91,-13 377.91,-9.5 367.91,-6 367.91,-13"/>
</a>
</g>
</g>
<!-- Node3 -->
<g id="Node000003" class="node">
<title>Node3</title>
<g id="a_Node000003"><a xlink:href="diagnostic_8c.html#afa994a86f133db5dbe1e009caad44e85" target="_top" xlink:title="Handle LIN diagnostic service &quot;ReadDataByIdentifier&quot; (0x22).">
<polygon fill="white" stroke="#666666" points="145,-19 0,-19 0,0 145,0 145,-19"/>
<text text-anchor="middle" x="72.5" y="-7" font-family="Helvetica,sans-Serif" font-size="10.00">ApplLinDiagReadDataById</text>
</a>
</g>
</g>
<!-- Node2&#45;&gt;Node3 -->
<g id="edge2_Node000002_Node000003" class="edge">
<title>Node2&#45;&gt;Node3</title>
<g id="a_edge2_Node000002_Node000003"><a xlink:title=" ">
<path fill="none" stroke="#63b8ff" d="M170.8,-9.5C162.15,-9.5 153.45,-9.5 145.01,-9.5"/>
<polygon fill="#63b8ff" stroke="#63b8ff" points="170.92,-13 180.92,-9.5 170.92,-6 170.92,-13"/>
</a>
</g>
</g>
</g>
</svg>
