<?xml version="1.0" encoding="UTF-8" standalone="no"?>
<!DOCTYPE svg PUBLIC "-//W3C//DTD SVG 1.1//EN"
 "http://www.w3.org/Graphics/SVG/1.1/DTD/svg11.dtd">
<!-- Generated by graphviz version 2.43.0 (0)
 -->
<!-- Title: RdbiVhitOverVoltageFaultDiag_ Pages: 1 -->
<svg width="527pt" height="38pt"
 viewBox="0.00 0.00 527.00 38.00" xmlns="http://www.w3.org/2000/svg" xmlns:xlink="http://www.w3.org/1999/xlink">
<g id="graph0" class="graph" transform="scale(1 1) rotate(0) translate(4 34)">
<title>RdbiVhitOverVoltageFaultDiag_</title>
<!-- Node1 -->
<g id="Node000001" class="node">
<title>Node1</title>
<g id="a_Node000001"><a xlink:title="DID handler that provides the Over Voltage Fault diagnostic information.">
<polygon fill="#999999" stroke="#666666" points="519,-30 378,-30 378,0 519,0 519,-30"/>
<text text-anchor="start" x="386" y="-18" font-family="Helvetica,sans-Serif" font-size="10.00">RdbiVhitOverVoltageFault</text>
<text text-anchor="middle" x="448.5" y="-7" font-family="Helvetica,sans-Serif" font-size="10.00">Diag_</text>
</a>
</g>
</g>
<!-- Node2 -->
<g id="Node000002" class="node">
<title>Node2</title>
<g id="a_Node000002"><a xlink:href="group__DiagnosticCfgModule.html#ga9029039986a6e787abd7c3bd809e83a3" target="_top" xlink:title="Dispatch the handler associated with a ReadDataByIdentifier DID request.">
<polygon fill="white" stroke="#666666" points="342,-24.5 181,-24.5 181,-5.5 342,-5.5 342,-24.5"/>
<text text-anchor="middle" x="261.5" y="-12.5" font-family="Helvetica,sans-Serif" font-size="10.00">getHandlersForReadDataById</text>
</a>
</g>
</g>
<!-- Node1&#45;&gt;Node2 -->
<g id="edge1_Node000001_Node000002" class="edge">
<title>Node1&#45;&gt;Node2</title>
<g id="a_edge1_Node000001_Node000002"><a xlink:title=" ">
<path fill="none" stroke="#63b8ff" d="M367.59,-15C359.12,-15 350.51,-15 342.05,-15"/>
<polygon fill="#63b8ff" stroke="#63b8ff" points="367.82,-18.5 377.82,-15 367.82,-11.5 367.82,-18.5"/>
</a>
</g>
</g>
<!-- Node3 -->
<g id="Node000003" class="node">
<title>Node3</title>
<g id="a_Node000003"><a xlink:href="diagnostic_8c.html#afa994a86f133db5dbe1e009caad44e85" target="_top" xlink:title="Handle LIN diagnostic service &quot;ReadDataByIdentifier&quot; (0x22).">
<polygon fill="white" stroke="#666666" points="145,-24.5 0,-24.5 0,-5.5 145,-5.5 145,-24.5"/>
<text text-anchor="middle" x="72.5" y="-12.5" font-family="Helvetica,sans-Serif" font-size="10.00">ApplLinDiagReadDataById</text>
</a>
</g>
</g>
<!-- Node2&#45;&gt;Node3 -->
<g id="edge2_Node000002_Node000003" class="edge">
<title>Node2&#45;&gt;Node3</title>
<g id="a_edge2_Node000002_Node000003"><a xlink:title=" ">
<path fill="none" stroke="#63b8ff" d="M170.8,-15C162.15,-15 153.45,-15 145.01,-15"/>
<polygon fill="#63b8ff" stroke="#63b8ff" points="170.92,-18.5 180.92,-15 170.92,-11.5 170.92,-18.5"/>
</a>
</g>
</g>
</g>
</svg>
