<?xml version="1.0" encoding="us-ascii" standalone="no"?><svg xmlns="http://www.w3.org/2000/svg" xmlns:xlink="http://www.w3.org/1999/xlink" contentStyleType="text/css" height="254px" preserveAspectRatio="none" style="width:312px;height:254px;background:#FFFFFF;" version="1.1" viewBox="0 0 312 254" width="312px" zoomAndPan="magnify"><defs/><g><ellipse cx="148.5" cy="20" fill="#222222" rx="10" ry="10" style="stroke:#222222;stroke-width:1.0;"/><rect fill="#F1F1F1" height="33.9688" rx="12.5" ry="12.5" style="stroke:#181818;stroke-width:0.5;" width="213" x="42" y="50"/><text fill="#000000" font-family="sans-serif" font-size="12" lengthAdjust="spacing" textLength="193" x="52" y="71.1387">Compare currentNad with 0x7F</text><polygon fill="#F1F1F1" points="91,103.9688,206,103.9688,218,115.9688,206,127.9688,91,127.9688,79,115.9688,91,103.9688" style="stroke:#181818;stroke-width:0.5;"/><text fill="#000000" font-family="sans-serif" font-size="11" lengthAdjust="spacing" textLength="115" x="91" y="119.7769">currentNad == 0x7F</text><text fill="#000000" font-family="sans-serif" font-size="11" lengthAdjust="spacing" textLength="22" x="57" y="113.3745">YES</text><text fill="#000000" font-family="sans-serif" font-size="11" lengthAdjust="spacing" textLength="17" x="218" y="113.3745">NO</text><rect fill="#F1F1F1" height="33.9688" rx="12.5" ry="12.5" style="stroke:#181818;stroke-width:0.5;" width="116" x="11" y="137.9688"/><ellipse cx="26.5" cy="154.4375" fill="#000000" rx="2.5" ry="2.5" style="stroke:#000000;stroke-width:0.0;"/><text fill="#000000" font-family="sans-serif" font-size="12" lengthAdjust="spacing" textLength="84" x="33" y="159.1074">result = E_OK</text><rect fill="#F1F1F1" height="33.9688" rx="12.5" ry="12.5" style="stroke:#181818;stroke-width:0.5;" width="147" x="154.5" y="137.9688"/><ellipse cx="170" cy="154.4375" fill="#000000" rx="2.5" ry="2.5" style="stroke:#000000;stroke-width:0.0;"/><text fill="#000000" font-family="sans-serif" font-size="12" lengthAdjust="spacing" textLength="115" x="176.5" y="159.1074">result = E_NOT_OK</text><polygon fill="#F1F1F1" points="148.5,177.9375,160.5,189.9375,148.5,201.9375,136.5,189.9375,148.5,177.9375" style="stroke:#181818;stroke-width:0.5;"/><ellipse cx="148.5" cy="232.9375" fill="none" rx="11" ry="11" style="stroke:#222222;stroke-width:1.0;"/><ellipse cx="148.5" cy="232.9375" fill="#222222" rx="6" ry="6" style="stroke:#222222;stroke-width:1.0;"/><line style="stroke:#181818;stroke-width:1.0;" x1="148.5" x2="148.5" y1="30" y2="50"/><polygon fill="#181818" points="144.5,40,148.5,50,152.5,40,148.5,44" style="stroke:#181818;stroke-width:1.0;"/><line style="stroke:#181818;stroke-width:1.0;" x1="79" x2="69" y1="115.9688" y2="115.9688"/><line style="stroke:#181818;stroke-width:1.0;" x1="69" x2="69" y1="115.9688" y2="137.9688"/><polygon fill="#181818" points="65,127.9688,69,137.9688,73,127.9688,69,131.9688" style="stroke:#181818;stroke-width:1.0;"/><line style="stroke:#181818;stroke-width:1.0;" x1="218" x2="228" y1="115.9688" y2="115.9688"/><line style="stroke:#181818;stroke-width:1.0;" x1="228" x2="228" y1="115.9688" y2="137.9688"/><polygon fill="#181818" points="224,127.9688,228,137.9688,232,127.9688,228,131.9688" style="stroke:#181818;stroke-width:1.0;"/><line style="stroke:#181818;stroke-width:1.0;" x1="69" x2="69" y1="171.9375" y2="189.9375"/><line style="stroke:#181818;stroke-width:1.0;" x1="69" x2="136.5" y1="189.9375" y2="189.9375"/><polygon fill="#181818" points="126.5,185.9375,136.5,189.9375,126.5,193.9375,130.5,189.9375" style="stroke:#181818;stroke-width:1.0;"/><line style="stroke:#181818;stroke-width:1.0;" x1="228" x2="228" y1="171.9375" y2="189.9375"/><line style="stroke:#181818;stroke-width:1.0;" x1="228" x2="160.5" y1="189.9375" y2="189.9375"/><polygon fill="#181818" points="170.5,185.9375,160.5,189.9375,170.5,193.9375,166.5,189.9375" style="stroke:#181818;stroke-width:1.0;"/><line style="stroke:#181818;stroke-width:1.0;" x1="148.5" x2="148.5" y1="83.9688" y2="103.9688"/><polygon fill="#181818" points="144.5,93.9688,148.5,103.9688,152.5,93.9688,148.5,97.9688" style="stroke:#181818;stroke-width:1.0;"/><line style="stroke:#181818;stroke-width:1.0;" x1="148.5" x2="148.5" y1="201.9375" y2="221.9375"/><polygon fill="#181818" points="144.5,211.9375,148.5,221.9375,152.5,211.9375,148.5,215.9375" style="stroke:#181818;stroke-width:1.0;"/><!--SRC=[Aov9B2hXidBEpor8B4fLI2ujAahDA_5BJ54epop9K32eC7UpvifCKz10ah6r1OjhAfHafEOfQ4Iw1cjoAIXOQHMb5fVcb2ZOAhZ6-tjRSwNc5ASgQFZvOqZw-OT05EIbPAPn5PVa5m00]--></g></svg>