<?xml version="1.0" encoding="us-ascii" standalone="no"?><svg xmlns="http://www.w3.org/2000/svg" xmlns:xlink="http://www.w3.org/1999/xlink" contentStyleType="text/css" height="283px" preserveAspectRatio="none" style="width:208px;height:283px;background:#FFFFFF;" version="1.1" viewBox="0 0 208 283" width="208px" zoomAndPan="magnify"><defs/><g><ellipse cx="92.5" cy="20" fill="#222222" rx="10" ry="10" style="stroke:#222222;stroke-width:1.0;"/><rect fill="#F1F1F1" height="33.9688" rx="12.5" ry="12.5" style="stroke:#181818;stroke-width:0.5;" width="160" x="12.5" y="98.4023"/><ellipse cx="28" cy="114.8711" fill="#000000" rx="2.5" ry="2.5" style="stroke:#000000;stroke-width:0.0;"/><text fill="#000000" font-family="sans-serif" font-size="12" lengthAdjust="spacing" textLength="128" x="34.5" y="119.541">errCode_pu8 = 0x12</text><polygon fill="#F1F1F1" points="32,50,153,50,165,62,153,74,32,74,20,62,32,50" style="stroke:#181818;stroke-width:0.5;"/><text fill="#000000" font-family="sans-serif" font-size="11" lengthAdjust="spacing" textLength="22" x="96.5" y="84.2104">YES</text><text fill="#000000" font-family="sans-serif" font-size="11" lengthAdjust="spacing" textLength="121" x="32" y="65.8081">errCode_pu8 != NULL</text><polygon fill="#F1F1F1" points="92.5,152.3711,104.5,164.3711,92.5,176.3711,80.5,164.3711,92.5,152.3711" style="stroke:#181818;stroke-width:0.5;"/><rect fill="#F1F1F1" height="33.9688" rx="12.5" ry="12.5" style="stroke:#181818;stroke-width:0.5;" width="124" x="30.5" y="196.3711"/><text fill="#000000" font-family="sans-serif" font-size="12" lengthAdjust="spacing" textLength="104" x="40.5" y="217.5098">return E_NOT_OK</text><ellipse cx="92.5" cy="261.3398" fill="none" rx="11" ry="11" style="stroke:#222222;stroke-width:1.0;"/><ellipse cx="92.5" cy="261.3398" fill="#222222" rx="6" ry="6" style="stroke:#222222;stroke-width:1.0;"/><line style="stroke:#181818;stroke-width:1.0;" x1="92.5" x2="92.5" y1="74" y2="98.4023"/><polygon fill="#181818" points="88.5,88.4023,92.5,98.4023,96.5,88.4023,92.5,92.4023" style="stroke:#181818;stroke-width:1.0;"/><line style="stroke:#181818;stroke-width:1.0;" x1="165" x2="182.5" y1="62" y2="62"/><polygon fill="#181818" points="178.5,105.3867,182.5,115.3867,186.5,105.3867,182.5,109.3867" style="stroke:#181818;stroke-width:1.0;"/><line style="stroke:#181818;stroke-width:1.0;" x1="182.5" x2="182.5" y1="62" y2="164.3711"/><line style="stroke:#181818;stroke-width:1.0;" x1="182.5" x2="104.5" y1="164.3711" y2="164.3711"/><polygon fill="#181818" points="114.5,160.3711,104.5,164.3711,114.5,168.3711,110.5,164.3711" style="stroke:#181818;stroke-width:1.0;"/><line style="stroke:#181818;stroke-width:1.0;" x1="92.5" x2="92.5" y1="132.3711" y2="152.3711"/><polygon fill="#181818" points="88.5,142.3711,92.5,152.3711,96.5,142.3711,92.5,146.3711" style="stroke:#181818;stroke-width:1.0;"/><line style="stroke:#181818;stroke-width:1.0;" x1="92.5" x2="92.5" y1="30" y2="50"/><polygon fill="#181818" points="88.5,40,92.5,50,96.5,40,92.5,44" style="stroke:#181818;stroke-width:1.0;"/><line style="stroke:#181818;stroke-width:1.0;" x1="92.5" x2="92.5" y1="176.3711" y2="196.3711"/><polygon fill="#181818" points="88.5,186.3711,92.5,196.3711,96.5,186.3711,92.5,190.3711" style="stroke:#181818;stroke-width:1.0;"/><line style="stroke:#181818;stroke-width:1.0;" x1="92.5" x2="92.5" y1="230.3398" y2="250.3398"/><polygon fill="#181818" points="88.5,240.3398,92.5,250.3398,96.5,240.3398,92.5,244.3398" style="stroke:#181818;stroke-width:1.0;"/><!--SRC=[Aov9B2hXoanJq4WjAdBEJqcDBoYrK52qLV0BzV7HL2Z9ICrJq8Xq3TRaKb2mqa9MOwjWK65ePCsLcfUIcSPbLPHQKbgKf-0Qx-SV4k_lRSrLN99V0000]--></g></svg>