<?xml version="1.0" encoding="us-ascii" standalone="no"?><svg xmlns="http://www.w3.org/2000/svg" xmlns:xlink="http://www.w3.org/1999/xlink" contentStyleType="text/css" height="913px" preserveAspectRatio="none" style="width:568px;height:913px;background:#FFFFFF;" version="1.1" viewBox="0 0 568 913" width="568px" zoomAndPan="magnify"><defs/><g><ellipse cx="289" cy="20" fill="#222222" rx="10" ry="10" style="stroke:#222222;stroke-width:1.0;"/><rect fill="#F1F1F1" height="33.9688" rx="12.5" ry="12.5" style="stroke:#181818;stroke-width:0.5;" width="245" x="166.5" y="50"/><text fill="#000000" font-family="sans-serif" font-size="12" lengthAdjust="spacing" textLength="225" x="176.5" y="71.1387">Read DID from pbLinDiagBuffer[1..2]</text><rect fill="#F1F1F1" height="33.9688" rx="12.5" ry="12.5" style="stroke:#181818;stroke-width:0.5;" width="113" x="232.5" y="103.9688"/><text fill="#000000" font-family="sans-serif" font-size="12" lengthAdjust="spacing" textLength="93" x="242.5" y="125.1074">l_result = E_OK</text><rect fill="#F1F1F1" height="33.9688" rx="12.5" ry="12.5" style="stroke:#181818;stroke-width:0.5;" width="105" x="236.5" y="157.9375"/><text fill="#000000" font-family="sans-serif" font-size="12" lengthAdjust="spacing" textLength="85" x="246.5" y="179.0762">l_errCode = 0</text><rect fill="#F1F1F1" height="33.9688" rx="12.5" ry="12.5" style="stroke:#181818;stroke-width:0.5;" width="220" x="179" y="211.9063"/><text fill="#000000" font-family="sans-serif" font-size="12" lengthAdjust="spacing" textLength="200" x="189" y="233.0449">l_diagBuf = &amp;pbLinDiagBuffer[3]</text><rect fill="#F1F1F1" height="33.9688" rx="12.5" ry="12.5" style="stroke:#181818;stroke-width:0.5;" width="126" x="226" y="265.875"/><text fill="#000000" font-family="sans-serif" font-size="12" lengthAdjust="spacing" textLength="106" x="236" y="287.0137">l_diagBufSize = 0</text><rect fill="#F1F1F1" height="33.9688" rx="12.5" ry="12.5" style="stroke:#181818;stroke-width:0.5;" width="210" x="184" y="319.8438"/><text fill="#000000" font-family="sans-serif" font-size="12" lengthAdjust="spacing" textLength="190" x="194" y="340.9824">checkCurrentNad(0, &amp;l_result)</text><rect fill="#F1F1F1" height="33.9688" rx="12.5" ry="12.5" style="stroke:#181818;stroke-width:0.5;" width="357" x="110.5" y="422.2148"/><text fill="#000000" font-family="sans-serif" font-size="12" lengthAdjust="spacing" textLength="337" x="120.5" y="443.3535">checkMsgDataLength(g_linDiagDataLength, &amp;l_result)</text><polygon fill="#F1F1F1" points="240.5,373.8125,337.5,373.8125,349.5,385.8125,337.5,397.8125,240.5,397.8125,228.5,385.8125,240.5,373.8125" style="stroke:#181818;stroke-width:0.5;"/><text fill="#000000" font-family="sans-serif" font-size="11" lengthAdjust="spacing" textLength="16" x="293" y="408.0229">OK</text><text fill="#000000" font-family="sans-serif" font-size="11" lengthAdjust="spacing" textLength="97" x="240.5" y="389.6206">l_result == E_OK</text><polygon fill="#F1F1F1" points="289,476.1836,301,488.1836,289,500.1836,277,488.1836,289,476.1836" style="stroke:#181818;stroke-width:0.5;"/><rect fill="#F1F1F1" height="75.875" rx="12.5" ry="12.5" style="stroke:#181818;stroke-width:0.5;" width="308" x="135" y="568.5859"/><text fill="#000000" font-family="sans-serif" font-size="12" lengthAdjust="spacing" textLength="288" x="145" y="589.7246">getHandlersForReadDataById(l_errCode, l_did,</text><text fill="#000000" font-family="sans-serif" font-size="12" lengthAdjust="spacing" textLength="94" x="257" y="603.6934">&amp;l_diagBufSize,</text><text fill="#000000" font-family="sans-serif" font-size="12" lengthAdjust="spacing" textLength="108" x="257" y="617.6621">&amp;l_didSupported,</text><text fill="#000000" font-family="sans-serif" font-size="12" lengthAdjust="spacing" textLength="61" x="257" y="631.6309">l_diagBuf)</text><polygon fill="#F1F1F1" points="240.5,520.1836,337.5,520.1836,349.5,532.1836,337.5,544.1836,240.5,544.1836,228.5,532.1836,240.5,520.1836" style="stroke:#181818;stroke-width:0.5;"/><text fill="#000000" font-family="sans-serif" font-size="11" lengthAdjust="spacing" textLength="16" x="293" y="554.394">OK</text><text fill="#000000" font-family="sans-serif" font-size="11" lengthAdjust="spacing" textLength="97" x="240.5" y="535.9917">l_result == E_OK</text><polygon fill="#F1F1F1" points="289,664.4609,301,676.4609,289,688.4609,277,676.4609,289,664.4609" style="stroke:#181818;stroke-width:0.5;"/><polygon fill="#F1F1F1" points="240.5,708.4609,337.5,708.4609,349.5,720.4609,337.5,732.4609,240.5,732.4609,228.5,720.4609,240.5,708.4609" style="stroke:#181818;stroke-width:0.5;"/><text fill="#000000" font-family="sans-serif" font-size="11" lengthAdjust="spacing" textLength="97" x="240.5" y="724.269">l_result == E_OK</text><text fill="#000000" font-family="sans-serif" font-size="11" lengthAdjust="spacing" textLength="24" x="204.5" y="717.8667">POS</text><text fill="#000000" font-family="sans-serif" font-size="11" lengthAdjust="spacing" textLength="24" x="349.5" y="717.8667">NEG</text><rect fill="#F1F1F1" height="33.9688" rx="12.5" ry="12.5" style="stroke:#181818;stroke-width:0.5;" width="273" x="11" y="742.4609"/><text fill="#000000" font-family="sans-serif" font-size="12" lengthAdjust="spacing" textLength="253" x="21" y="763.5996">g_linDiagDataLength = l_diagBufSize + 2</text><rect fill="#F1F1F1" height="33.9688" rx="12.5" ry="12.5" style="stroke:#181818;stroke-width:0.5;" width="192" x="51.5" y="796.4297"/><text fill="#000000" font-family="sans-serif" font-size="12" lengthAdjust="spacing" textLength="172" x="61.5" y="817.5684">LinDiagSendPosResponse()</text><rect fill="#F1F1F1" height="33.9688" rx="12.5" ry="12.5" style="stroke:#181818;stroke-width:0.5;" width="253" x="304" y="742.4609"/><text fill="#000000" font-family="sans-serif" font-size="12" lengthAdjust="spacing" textLength="233" x="314" y="763.5996">LinDiagSendNegResponse(l_errCode)</text><polygon fill="#F1F1F1" points="289,836.3984,301,848.3984,289,860.3984,277,848.3984,289,836.3984" style="stroke:#181818;stroke-width:0.5;"/><ellipse cx="289" cy="891.3984" fill="none" rx="11" ry="11" style="stroke:#222222;stroke-width:1.0;"/><ellipse cx="289" cy="891.3984" fill="#222222" rx="6" ry="6" style="stroke:#222222;stroke-width:1.0;"/><line style="stroke:#181818;stroke-width:1.0;" x1="289" x2="289" y1="30" y2="50"/><polygon fill="#181818" points="285,40,289,50,293,40,289,44" style="stroke:#181818;stroke-width:1.0;"/><line style="stroke:#181818;stroke-width:1.0;" x1="289" x2="289" y1="83.9688" y2="103.9688"/><polygon fill="#181818" points="285,93.9688,289,103.9688,293,93.9688,289,97.9688" style="stroke:#181818;stroke-width:1.0;"/><line style="stroke:#181818;stroke-width:1.0;" x1="289" x2="289" y1="137.9375" y2="157.9375"/><polygon fill="#181818" points="285,147.9375,289,157.9375,293,147.9375,289,151.9375" style="stroke:#181818;stroke-width:1.0;"/><line style="stroke:#181818;stroke-width:1.0;" x1="289" x2="289" y1="191.9063" y2="211.9063"/><polygon fill="#181818" points="285,201.9063,289,211.9063,293,201.9063,289,205.9063" style="stroke:#181818;stroke-width:1.0;"/><line style="stroke:#181818;stroke-width:1.0;" x1="289" x2="289" y1="245.875" y2="265.875"/><polygon fill="#181818" points="285,255.875,289,265.875,293,255.875,289,259.875" style="stroke:#181818;stroke-width:1.0;"/><line style="stroke:#181818;stroke-width:1.0;" x1="289" x2="289" y1="299.8438" y2="319.8438"/><polygon fill="#181818" points="285,309.8438,289,319.8438,293,309.8438,289,313.8438" style="stroke:#181818;stroke-width:1.0;"/><line style="stroke:#181818;stroke-width:1.0;" x1="289" x2="289" y1="397.8125" y2="422.2148"/><polygon fill="#181818" points="285,412.2148,289,422.2148,293,412.2148,289,416.2148" style="stroke:#181818;stroke-width:1.0;"/><line style="stroke:#181818;stroke-width:1.0;" x1="349.5" x2="477.5" y1="385.8125" y2="385.8125"/><polygon fill="#181818" points="473.5,429.1992,477.5,439.1992,481.5,429.1992,477.5,433.1992" style="stroke:#181818;stroke-width:1.0;"/><line style="stroke:#181818;stroke-width:1.0;" x1="477.5" x2="477.5" y1="385.8125" y2="488.1836"/><line style="stroke:#181818;stroke-width:1.0;" x1="477.5" x2="301" y1="488.1836" y2="488.1836"/><polygon fill="#181818" points="311,484.1836,301,488.1836,311,492.1836,307,488.1836" style="stroke:#181818;stroke-width:1.0;"/><line style="stroke:#181818;stroke-width:1.0;" x1="289" x2="289" y1="456.1836" y2="476.1836"/><polygon fill="#181818" points="285,466.1836,289,476.1836,293,466.1836,289,470.1836" style="stroke:#181818;stroke-width:1.0;"/><line style="stroke:#181818;stroke-width:1.0;" x1="289" x2="289" y1="353.8125" y2="373.8125"/><polygon fill="#181818" points="285,363.8125,289,373.8125,293,363.8125,289,367.8125" style="stroke:#181818;stroke-width:1.0;"/><line style="stroke:#181818;stroke-width:1.0;" x1="289" x2="289" y1="544.1836" y2="568.5859"/><polygon fill="#181818" points="285,558.5859,289,568.5859,293,558.5859,289,562.5859" style="stroke:#181818;stroke-width:1.0;"/><line style="stroke:#181818;stroke-width:1.0;" x1="349.5" x2="453" y1="532.1836" y2="532.1836"/><polygon fill="#181818" points="449,596.5234,453,606.5234,457,596.5234,453,600.5234" style="stroke:#181818;stroke-width:1.0;"/><line style="stroke:#181818;stroke-width:1.0;" x1="453" x2="453" y1="532.1836" y2="676.4609"/><line style="stroke:#181818;stroke-width:1.0;" x1="453" x2="301" y1="676.4609" y2="676.4609"/><polygon fill="#181818" points="311,672.4609,301,676.4609,311,680.4609,307,676.4609" style="stroke:#181818;stroke-width:1.0;"/><line style="stroke:#181818;stroke-width:1.0;" x1="289" x2="289" y1="644.4609" y2="664.4609"/><polygon fill="#181818" points="285,654.4609,289,664.4609,293,654.4609,289,658.4609" style="stroke:#181818;stroke-width:1.0;"/><line style="stroke:#181818;stroke-width:1.0;" x1="289" x2="289" y1="500.1836" y2="520.1836"/><polygon fill="#181818" points="285,510.1836,289,520.1836,293,510.1836,289,514.1836" style="stroke:#181818;stroke-width:1.0;"/><line style="stroke:#181818;stroke-width:1.0;" x1="147.5" x2="147.5" y1="776.4297" y2="796.4297"/><polygon fill="#181818" points="143.5,786.4297,147.5,796.4297,151.5,786.4297,147.5,790.4297" style="stroke:#181818;stroke-width:1.0;"/><line style="stroke:#181818;stroke-width:1.0;" x1="228.5" x2="147.5" y1="720.4609" y2="720.4609"/><line style="stroke:#181818;stroke-width:1.0;" x1="147.5" x2="147.5" y1="720.4609" y2="742.4609"/><polygon fill="#181818" points="143.5,732.4609,147.5,742.4609,151.5,732.4609,147.5,736.4609" style="stroke:#181818;stroke-width:1.0;"/><line style="stroke:#181818;stroke-width:1.0;" x1="349.5" x2="430.5" y1="720.4609" y2="720.4609"/><line style="stroke:#181818;stroke-width:1.0;" x1="430.5" x2="430.5" y1="720.4609" y2="742.4609"/><polygon fill="#181818" points="426.5,732.4609,430.5,742.4609,434.5,732.4609,430.5,736.4609" style="stroke:#181818;stroke-width:1.0;"/><line style="stroke:#181818;stroke-width:1.0;" x1="147.5" x2="147.5" y1="830.3984" y2="848.3984"/><line style="stroke:#181818;stroke-width:1.0;" x1="147.5" x2="277" y1="848.3984" y2="848.3984"/><polygon fill="#181818" points="267,844.3984,277,848.3984,267,852.3984,271,848.3984" style="stroke:#181818;stroke-width:1.0;"/><line style="stroke:#181818;stroke-width:1.0;" x1="430.5" x2="430.5" y1="776.4297" y2="848.3984"/><line style="stroke:#181818;stroke-width:1.0;" x1="430.5" x2="301" y1="848.3984" y2="848.3984"/><polygon fill="#181818" points="311,844.3984,301,848.3984,311,852.3984,307,848.3984" style="stroke:#181818;stroke-width:1.0;"/><line style="stroke:#181818;stroke-width:1.0;" x1="289" x2="289" y1="688.4609" y2="708.4609"/><polygon fill="#181818" points="285,698.4609,289,708.4609,293,698.4609,289,702.4609" style="stroke:#181818;stroke-width:1.0;"/><line style="stroke:#181818;stroke-width:1.0;" x1="289" x2="289" y1="860.3984" y2="880.3984"/><polygon fill="#181818" points="285,870.3984,289,880.3984,293,870.3984,289,874.3984" style="stroke:#181818;stroke-width:1.0;"/><!--SRC=[ZP71JuCm5CRl_IlUYPH8bZbl42yRKnSdMyRHBAIkZqB4bhJbe7-zPKmsPgBqrBvyx_VrVSzOfYq9TyWunAiOSgq-e7vRbp8kcPWtUOxwzNOocUqZ4bQPHjDK5kvXcMsUZnNKUg4ukjBq-EPTctjxrvYx_QKYBRzENIGy57XuNpHQexG9utGQWFTZvaUap86UlJjp7so14gYx4O2Ey694p2nRenIse2AhEljpROX5oSkSZA4Bj4zCyWgrUL2w3QjbpZzNdFO91D2EnWEd_-juWm16gNdQrBNI5l-5z-nnqsqtQJVUxwJSPeQRke5Pr6fFAqqTVglC3asjf47Q6bO6WIRBH_zAbw3eTNrS_G-DLVKt]--></g></svg>