<?xml version="1.0" encoding="us-ascii" standalone="no"?><svg xmlns="http://www.w3.org/2000/svg" xmlns:xlink="http://www.w3.org/1999/xlink" contentStyleType="text/css" height="244px" preserveAspectRatio="none" style="width:289px;height:244px;background:#FFFFFF;" version="1.1" viewBox="0 0 289 244" width="289px" zoomAndPan="magnify"><defs/><g><ellipse cx="144.5" cy="20" fill="#222222" rx="10" ry="10" style="stroke:#222222;stroke-width:1.0;"/><rect fill="#F1F1F1" height="33.9688" rx="12.5" ry="12.5" style="stroke:#181818;stroke-width:0.5;" width="267" x="11" y="50"/><text fill="#000000" font-family="sans-serif" font-size="12" lengthAdjust="spacing" textLength="247" x="21" y="71.1387">output_pu8[0] = &lt;overvoltage_status&gt;</text><rect fill="#F1F1F1" height="33.9688" rx="12.5" ry="12.5" style="stroke:#181818;stroke-width:0.5;" width="111" x="89" y="103.9688"/><ellipse cx="104.5" cy="120.4375" fill="#000000" rx="2.5" ry="2.5" style="stroke:#000000;stroke-width:0.0;"/><text fill="#000000" font-family="sans-serif" font-size="12" lengthAdjust="spacing" textLength="79" x="111" y="125.1074">size_pu8 = 1</text><rect fill="#F1F1F1" height="33.9688" rx="12.5" ry="12.5" style="stroke:#181818;stroke-width:0.5;" width="93" x="98" y="157.9375"/><text fill="#000000" font-family="sans-serif" font-size="12" lengthAdjust="spacing" textLength="73" x="108" y="179.0762">return E_OK</text><ellipse cx="144.5" cy="222.9063" fill="none" rx="11" ry="11" style="stroke:#222222;stroke-width:1.0;"/><ellipse cx="144.5" cy="222.9063" fill="#222222" rx="6" ry="6" style="stroke:#222222;stroke-width:1.0;"/><line style="stroke:#181818;stroke-width:1.0;" x1="144.5" x2="144.5" y1="30" y2="50"/><polygon fill="#181818" points="140.5,40,144.5,50,148.5,40,144.5,44" style="stroke:#181818;stroke-width:1.0;"/><line style="stroke:#181818;stroke-width:1.0;" x1="144.5" x2="144.5" y1="83.9688" y2="103.9688"/><polygon fill="#181818" points="140.5,93.9688,144.5,103.9688,148.5,93.9688,144.5,97.9688" style="stroke:#181818;stroke-width:1.0;"/><line style="stroke:#181818;stroke-width:1.0;" x1="144.5" x2="144.5" y1="137.9375" y2="157.9375"/><polygon fill="#181818" points="140.5,147.9375,144.5,157.9375,148.5,147.9375,144.5,151.9375" style="stroke:#181818;stroke-width:1.0;"/><line style="stroke:#181818;stroke-width:1.0;" x1="144.5" x2="144.5" y1="191.9063" y2="211.9063"/><polygon fill="#181818" points="140.5,201.9063,144.5,211.9063,148.5,201.9063,144.5,205.9063" style="stroke:#181818;stroke-width:1.0;"/><!--SRC=[Aov9B2hXiielBIaeBOalABM8DeXLi5MmoIzBBIhBpob9J4-DBov9B2ajjhFcij8gpgnA1Qa2AZ44yejIIqgByXHSu_szhRcAI_8B0000]--></g></svg>