<?xml version="1.0" encoding="us-ascii" standalone="no"?><svg xmlns="http://www.w3.org/2000/svg" xmlns:xlink="http://www.w3.org/1999/xlink" contentStyleType="text/css" height="429px" preserveAspectRatio="none" style="width:208px;height:429px;background:#FFFFFF;" version="1.1" viewBox="0 0 208 429" width="208px" zoomAndPan="magnify"><defs/><g><ellipse cx="92.5" cy="20" fill="#222222" rx="10" ry="10" style="stroke:#222222;stroke-width:1.0;"/><rect fill="#F1F1F1" height="33.9688" rx="12.5" ry="12.5" style="stroke:#181818;stroke-width:0.5;" width="111" x="37" y="98.4023"/><ellipse cx="52.5" cy="114.8711" fill="#000000" rx="2.5" ry="2.5" style="stroke:#000000;stroke-width:0.0;"/><text fill="#000000" font-family="sans-serif" font-size="12" lengthAdjust="spacing" textLength="79" x="59" y="119.541">size_pu8 = 0</text><polygon fill="#F1F1F1" points="44,50,141,50,153,62,141,74,44,74,32,62,44,50" style="stroke:#181818;stroke-width:0.5;"/><text fill="#000000" font-family="sans-serif" font-size="11" lengthAdjust="spacing" textLength="22" x="96.5" y="84.2104">YES</text><text fill="#000000" font-family="sans-serif" font-size="11" lengthAdjust="spacing" textLength="97" x="44" y="65.8081">size_pu8 != NULL</text><polygon fill="#F1F1F1" points="92.5,152.3711,104.5,164.3711,92.5,176.3711,80.5,164.3711,92.5,152.3711" style="stroke:#181818;stroke-width:0.5;"/><rect fill="#F1F1F1" height="33.9688" rx="12.5" ry="12.5" style="stroke:#181818;stroke-width:0.5;" width="160" x="12.5" y="244.7734"/><ellipse cx="28" cy="261.2422" fill="#000000" rx="2.5" ry="2.5" style="stroke:#000000;stroke-width:0.0;"/><text fill="#000000" font-family="sans-serif" font-size="12" lengthAdjust="spacing" textLength="128" x="34.5" y="265.9121">errCode_pu8 = 0x12</text><polygon fill="#F1F1F1" points="32,196.3711,153,196.3711,165,208.3711,153,220.3711,32,220.3711,20,208.3711,32,196.3711" style="stroke:#181818;stroke-width:0.5;"/><text fill="#000000" font-family="sans-serif" font-size="11" lengthAdjust="spacing" textLength="22" x="96.5" y="230.5815">YES</text><text fill="#000000" font-family="sans-serif" font-size="11" lengthAdjust="spacing" textLength="121" x="32" y="212.1792">errCode_pu8 != NULL</text><polygon fill="#F1F1F1" points="92.5,298.7422,104.5,310.7422,92.5,322.7422,80.5,310.7422,92.5,298.7422" style="stroke:#181818;stroke-width:0.5;"/><rect fill="#F1F1F1" height="33.9688" rx="12.5" ry="12.5" style="stroke:#181818;stroke-width:0.5;" width="124" x="30.5" y="342.7422"/><text fill="#000000" font-family="sans-serif" font-size="12" lengthAdjust="spacing" textLength="104" x="40.5" y="363.8809">return E_NOT_OK</text><ellipse cx="92.5" cy="407.7109" fill="none" rx="11" ry="11" style="stroke:#222222;stroke-width:1.0;"/><ellipse cx="92.5" cy="407.7109" fill="#222222" rx="6" ry="6" style="stroke:#222222;stroke-width:1.0;"/><line style="stroke:#181818;stroke-width:1.0;" x1="92.5" x2="92.5" y1="74" y2="98.4023"/><polygon fill="#181818" points="88.5,88.4023,92.5,98.4023,96.5,88.4023,92.5,92.4023" style="stroke:#181818;stroke-width:1.0;"/><line style="stroke:#181818;stroke-width:1.0;" x1="153" x2="165" y1="62" y2="62"/><polygon fill="#181818" points="161,105.3867,165,115.3867,169,105.3867,165,109.3867" style="stroke:#181818;stroke-width:1.0;"/><line style="stroke:#181818;stroke-width:1.0;" x1="165" x2="165" y1="62" y2="164.3711"/><line style="stroke:#181818;stroke-width:1.0;" x1="165" x2="104.5" y1="164.3711" y2="164.3711"/><polygon fill="#181818" points="114.5,160.3711,104.5,164.3711,114.5,168.3711,110.5,164.3711" style="stroke:#181818;stroke-width:1.0;"/><line style="stroke:#181818;stroke-width:1.0;" x1="92.5" x2="92.5" y1="132.3711" y2="152.3711"/><polygon fill="#181818" points="88.5,142.3711,92.5,152.3711,96.5,142.3711,92.5,146.3711" style="stroke:#181818;stroke-width:1.0;"/><line style="stroke:#181818;stroke-width:1.0;" x1="92.5" x2="92.5" y1="30" y2="50"/><polygon fill="#181818" points="88.5,40,92.5,50,96.5,40,92.5,44" style="stroke:#181818;stroke-width:1.0;"/><line style="stroke:#181818;stroke-width:1.0;" x1="92.5" x2="92.5" y1="220.3711" y2="244.7734"/><polygon fill="#181818" points="88.5,234.7734,92.5,244.7734,96.5,234.7734,92.5,238.7734" style="stroke:#181818;stroke-width:1.0;"/><line style="stroke:#181818;stroke-width:1.0;" x1="165" x2="182.5" y1="208.3711" y2="208.3711"/><polygon fill="#181818" points="178.5,251.7578,182.5,261.7578,186.5,251.7578,182.5,255.7578" style="stroke:#181818;stroke-width:1.0;"/><line style="stroke:#181818;stroke-width:1.0;" x1="182.5" x2="182.5" y1="208.3711" y2="310.7422"/><line style="stroke:#181818;stroke-width:1.0;" x1="182.5" x2="104.5" y1="310.7422" y2="310.7422"/><polygon fill="#181818" points="114.5,306.7422,104.5,310.7422,114.5,314.7422,110.5,310.7422" style="stroke:#181818;stroke-width:1.0;"/><line style="stroke:#181818;stroke-width:1.0;" x1="92.5" x2="92.5" y1="278.7422" y2="298.7422"/><polygon fill="#181818" points="88.5,288.7422,92.5,298.7422,96.5,288.7422,92.5,292.7422" style="stroke:#181818;stroke-width:1.0;"/><line style="stroke:#181818;stroke-width:1.0;" x1="92.5" x2="92.5" y1="176.3711" y2="196.3711"/><polygon fill="#181818" points="88.5,186.3711,92.5,196.3711,96.5,186.3711,92.5,190.3711" style="stroke:#181818;stroke-width:1.0;"/><line style="stroke:#181818;stroke-width:1.0;" x1="92.5" x2="92.5" y1="322.7422" y2="342.7422"/><polygon fill="#181818" points="88.5,332.7422,92.5,342.7422,96.5,332.7422,92.5,336.7422" style="stroke:#181818;stroke-width:1.0;"/><line style="stroke:#181818;stroke-width:1.0;" x1="92.5" x2="92.5" y1="376.7109" y2="396.7109"/><polygon fill="#181818" points="88.5,386.7109,92.5,396.7109,96.5,386.7109,92.5,390.7109" style="stroke:#181818;stroke-width:1.0;"/><!--SRC=[Aov9B2hXoanJq2ZEh4gDBoYrK52qLV0BzV7HL2Z9ICrJq8Xq3TRaKb2mqe8hi5KmiEPApKl9J0DhJ2qgSivFmQyNMGrGUuMX4Sm4gwBKajAYF0NNU3__a7X_RskkufBy0W00]--></g></svg>