<?xml version="1.0" encoding="us-ascii" standalone="no"?><svg xmlns="http://www.w3.org/2000/svg" xmlns:xlink="http://www.w3.org/1999/xlink" contentStyleType="text/css" height="190px" preserveAspectRatio="none" style="width:180px;height:190px;background:#FFFFFF;" version="1.1" viewBox="0 0 180 190" width="180px" zoomAndPan="magnify"><defs/><g><ellipse cx="90" cy="20" fill="#222222" rx="10" ry="10" style="stroke:#222222;stroke-width:1.0;"/><rect fill="#F1F1F1" height="33.9688" rx="12.5" ry="12.5" style="stroke:#181818;stroke-width:0.5;" width="158" x="11" y="50"/><text fill="#000000" font-family="sans-serif" font-size="12" lengthAdjust="spacing" textLength="138" x="21" y="71.1387">output_pu8[0] = 0x01</text><rect fill="#F1F1F1" height="33.9688" rx="12.5" ry="12.5" style="stroke:#181818;stroke-width:0.5;" width="93" x="43.5" y="103.9688"/><text fill="#000000" font-family="sans-serif" font-size="12" lengthAdjust="spacing" textLength="73" x="53.5" y="125.1074">return E_OK</text><ellipse cx="90" cy="168.9375" fill="none" rx="11" ry="11" style="stroke:#222222;stroke-width:1.0;"/><ellipse cx="90" cy="168.9375" fill="#222222" rx="6" ry="6" style="stroke:#222222;stroke-width:1.0;"/><line style="stroke:#181818;stroke-width:1.0;" x1="90" x2="90" y1="30" y2="50"/><polygon fill="#181818" points="86,40,90,50,94,40,90,44" style="stroke:#181818;stroke-width:1.0;"/><line style="stroke:#181818;stroke-width:1.0;" x1="90" x2="90" y1="83.9688" y2="103.9688"/><polygon fill="#181818" points="86,93.9688,90,103.9688,94,93.9688,90,97.9688" style="stroke:#181818;stroke-width:1.0;"/><line style="stroke:#181818;stroke-width:1.0;" x1="90" x2="90" y1="137.9375" y2="157.9375"/><polygon fill="#181818" points="86,147.9375,90,157.9375,94,147.9375,90,151.9375" style="stroke:#181818;stroke-width:1.0;"/><!--SRC=[Aov9B2hXiielBIaeBOalABM8DeXLi5Kmg30mjEQoAaejAItAKt2Dz_UsvYekoIy00000]--></g></svg>