<?xml version="1.0" encoding="us-ascii" standalone="no"?><svg xmlns="http://www.w3.org/2000/svg" xmlns:xlink="http://www.w3.org/1999/xlink" contentStyleType="text/css" height="362px" preserveAspectRatio="none" style="width:660px;height:362px;background:#FFFFFF;" version="1.1" viewBox="0 0 660 362" width="660px" zoomAndPan="magnify"><defs/><g><ellipse cx="319" cy="20" fill="#222222" rx="10" ry="10" style="stroke:#222222;stroke-width:1.0;"/><rect fill="#F1F1F1" height="33.9688" rx="12.5" ry="12.5" style="stroke:#181818;stroke-width:0.5;" width="303" x="167.5" y="50"/><text fill="#000000" font-family="sans-serif" font-size="12" lengthAdjust="spacing" textLength="283" x="177.5" y="71.1387">l_handler = SubfunctionRequestOutOfRange_</text><polygon fill="#F1F1F1" points="256.5,103.9688,381.5,103.9688,393.5,115.9688,381.5,127.9688,256.5,127.9688,244.5,115.9688,256.5,103.9688" style="stroke:#181818;stroke-width:0.5;"/><text fill="#000000" font-family="sans-serif" font-size="11" lengthAdjust="spacing" textLength="125" x="256.5" y="119.7769">l_did_cu16 == 0xF308</text><text fill="#000000" font-family="sans-serif" font-size="11" lengthAdjust="spacing" textLength="22" x="222.5" y="113.3745">YES</text><text fill="#000000" font-family="sans-serif" font-size="11" lengthAdjust="spacing" textLength="17" x="393.5" y="113.3745">NO</text><rect fill="#F1F1F1" height="33.9688" rx="12.5" ry="12.5" style="stroke:#181818;stroke-width:0.5;" width="244" x="32.5" y="137.9688"/><ellipse cx="48" cy="154.4375" fill="#000000" rx="2.5" ry="2.5" style="stroke:#000000;stroke-width:0.0;"/><text fill="#000000" font-family="sans-serif" font-size="12" lengthAdjust="spacing" textLength="212" x="54.5" y="159.1074">l_diagBufSize_u8 = DID_F308_SIZE</text><rect fill="#F1F1F1" height="33.9688" rx="12.5" ry="12.5" style="stroke:#181818;stroke-width:0.5;" width="287" x="11" y="191.9375"/><text fill="#000000" font-family="sans-serif" font-size="12" lengthAdjust="spacing" textLength="267" x="21" y="213.0762">l_handler = RdbiVhitOverVoltageFaultDiag_</text><rect fill="#F1F1F1" height="33.9688" rx="12.5" ry="12.5" style="stroke:#181818;stroke-width:0.5;" width="211" x="378" y="137.9688"/><ellipse cx="393.5" cy="154.4375" fill="#000000" rx="2.5" ry="2.5" style="stroke:#000000;stroke-width:0.0;"/><text fill="#000000" font-family="sans-serif" font-size="12" lengthAdjust="spacing" textLength="179" x="400" y="159.1074">l_didSupported_ = E_NOT_OK</text><rect fill="#F1F1F1" height="33.9688" rx="12.5" ry="12.5" style="stroke:#181818;stroke-width:0.5;" width="331" x="318" y="191.9375"/><ellipse cx="333.5" cy="208.4063" fill="#000000" rx="2.5" ry="2.5" style="stroke:#000000;stroke-width:0.0;"/><text fill="#000000" font-family="sans-serif" font-size="12" lengthAdjust="spacing" textLength="299" x="340" y="213.0762">l_errCode_u8 = kLinDiagNrcRequestOutOfRange</text><polygon fill="#F1F1F1" points="319,231.9063,331,243.9063,319,255.9063,307,243.9063,319,231.9063" style="stroke:#181818;stroke-width:0.5;"/><rect fill="#F1F1F1" height="33.9688" rx="12.5" ry="12.5" style="stroke:#181818;stroke-width:0.5;" width="425" x="106.5" y="275.9063"/><text fill="#000000" font-family="sans-serif" font-size="12" lengthAdjust="spacing" textLength="405" x="116.5" y="297.0449">return l_handler(l_diagBuf_pu8, l_diagBufSize_u8, &amp;l_errCode_u8)</text><ellipse cx="319" cy="340.875" fill="none" rx="11" ry="11" style="stroke:#222222;stroke-width:1.0;"/><ellipse cx="319" cy="340.875" fill="#222222" rx="6" ry="6" style="stroke:#222222;stroke-width:1.0;"/><line style="stroke:#181818;stroke-width:1.0;" x1="319" x2="319" y1="30" y2="50"/><polygon fill="#181818" points="315,40,319,50,323,40,319,44" style="stroke:#181818;stroke-width:1.0;"/><line style="stroke:#181818;stroke-width:1.0;" x1="154.5" x2="154.5" y1="171.9375" y2="191.9375"/><polygon fill="#181818" points="150.5,181.9375,154.5,191.9375,158.5,181.9375,154.5,185.9375" style="stroke:#181818;stroke-width:1.0;"/><line style="stroke:#181818;stroke-width:1.0;" x1="483.5" x2="483.5" y1="171.9375" y2="191.9375"/><polygon fill="#181818" points="479.5,181.9375,483.5,191.9375,487.5,181.9375,483.5,185.9375" style="stroke:#181818;stroke-width:1.0;"/><line style="stroke:#181818;stroke-width:1.0;" x1="244.5" x2="154.5" y1="115.9688" y2="115.9688"/><line style="stroke:#181818;stroke-width:1.0;" x1="154.5" x2="154.5" y1="115.9688" y2="137.9688"/><polygon fill="#181818" points="150.5,127.9688,154.5,137.9688,158.5,127.9688,154.5,131.9688" style="stroke:#181818;stroke-width:1.0;"/><line style="stroke:#181818;stroke-width:1.0;" x1="393.5" x2="483.5" y1="115.9688" y2="115.9688"/><line style="stroke:#181818;stroke-width:1.0;" x1="483.5" x2="483.5" y1="115.9688" y2="137.9688"/><polygon fill="#181818" points="479.5,127.9688,483.5,137.9688,487.5,127.9688,483.5,131.9688" style="stroke:#181818;stroke-width:1.0;"/><line style="stroke:#181818;stroke-width:1.0;" x1="154.5" x2="154.5" y1="225.9063" y2="243.9063"/><line style="stroke:#181818;stroke-width:1.0;" x1="154.5" x2="307" y1="243.9063" y2="243.9063"/><polygon fill="#181818" points="297,239.9063,307,243.9063,297,247.9063,301,243.9063" style="stroke:#181818;stroke-width:1.0;"/><line style="stroke:#181818;stroke-width:1.0;" x1="483.5" x2="483.5" y1="225.9063" y2="243.9063"/><line style="stroke:#181818;stroke-width:1.0;" x1="483.5" x2="331" y1="243.9063" y2="243.9063"/><polygon fill="#181818" points="341,239.9063,331,243.9063,341,247.9063,337,243.9063" style="stroke:#181818;stroke-width:1.0;"/><line style="stroke:#181818;stroke-width:1.0;" x1="319" x2="319" y1="83.9688" y2="103.9688"/><polygon fill="#181818" points="315,93.9688,319,103.9688,323,93.9688,319,97.9688" style="stroke:#181818;stroke-width:1.0;"/><line style="stroke:#181818;stroke-width:1.0;" x1="319" x2="319" y1="255.9063" y2="275.9063"/><polygon fill="#181818" points="315,265.9063,319,275.9063,323,265.9063,319,269.9063" style="stroke:#181818;stroke-width:1.0;"/><line style="stroke:#181818;stroke-width:1.0;" x1="319" x2="319" y1="309.875" y2="329.875"/><polygon fill="#181818" points="315,319.875,319,329.875,323,319.875,319,323.875" style="stroke:#181818;stroke-width:1.0;"/><!--SRC=[POz1IyD048Nl-olc98dqK14a9EHIaq9Hif18GI_BDZj95fTDtCo8-EjDeDIYvtdpVU_Df0E9rAb1U-CmG0uDdphsBTdHr_Z1E9DaabsjVOyg4y9s43bbh54jtpr0diFsQt-_JMAW0Jr4hsKJ2u3qTWtfViTTOxzHSRAmYqEXrgng3czbjgQkpRKvsUDWINvYE8wET8zxpOwA1REOqSq8KIL_wQRXQHe3eL7BUwag-QBaKtQ-OmYFepcRtv-jNpbLQF-jMj3Us4w8D21ny70f5Lqsg8cJ3VoTj86RQq-SYPd6wGS0]--></g></svg>