<?xml version="1.0" encoding="us-ascii" standalone="no"?><svg xmlns="http://www.w3.org/2000/svg" xmlns:xlink="http://www.w3.org/1999/xlink" contentStyleType="text/css" height="254px" preserveAspectRatio="none" style="width:352px;height:254px;background:#FFFFFF;" version="1.1" viewBox="0 0 352 254" width="352px" zoomAndPan="magnify"><defs/><g><ellipse cx="176" cy="20" fill="#222222" rx="10" ry="10" style="stroke:#222222;stroke-width:1.0;"/><rect fill="#F1F1F1" height="33.9688" rx="12.5" ry="12.5" style="stroke:#181818;stroke-width:0.5;" width="330" x="11" y="50"/><text fill="#000000" font-family="sans-serif" font-size="12" lengthAdjust="spacing" textLength="310" x="21" y="71.1387">Check (dataLength &gt; 0) AND (dataLength &lt;= 32)</text><polygon fill="#F1F1F1" points="143.5,103.9688,208.5,103.9688,220.5,115.9688,208.5,127.9688,143.5,127.9688,131.5,115.9688,143.5,103.9688" style="stroke:#181818;stroke-width:0.5;"/><text fill="#000000" font-family="sans-serif" font-size="11" lengthAdjust="spacing" textLength="65" x="143.5" y="119.7769">valid length</text><text fill="#000000" font-family="sans-serif" font-size="11" lengthAdjust="spacing" textLength="22" x="109.5" y="113.3745">YES</text><text fill="#000000" font-family="sans-serif" font-size="11" lengthAdjust="spacing" textLength="17" x="220.5" y="113.3745">NO</text><rect fill="#F1F1F1" height="33.9688" rx="12.5" ry="12.5" style="stroke:#181818;stroke-width:0.5;" width="116" x="42.25" y="137.9688"/><ellipse cx="57.75" cy="154.4375" fill="#000000" rx="2.5" ry="2.5" style="stroke:#000000;stroke-width:0.0;"/><text fill="#000000" font-family="sans-serif" font-size="12" lengthAdjust="spacing" textLength="84" x="64.25" y="159.1074">result = E_OK</text><rect fill="#F1F1F1" height="33.9688" rx="12.5" ry="12.5" style="stroke:#181818;stroke-width:0.5;" width="147" x="178.25" y="137.9688"/><ellipse cx="193.75" cy="154.4375" fill="#000000" rx="2.5" ry="2.5" style="stroke:#000000;stroke-width:0.0;"/><text fill="#000000" font-family="sans-serif" font-size="12" lengthAdjust="spacing" textLength="115" x="200.25" y="159.1074">result = E_NOT_OK</text><polygon fill="#F1F1F1" points="176,177.9375,188,189.9375,176,201.9375,164,189.9375,176,177.9375" style="stroke:#181818;stroke-width:0.5;"/><ellipse cx="176" cy="232.9375" fill="none" rx="11" ry="11" style="stroke:#222222;stroke-width:1.0;"/><ellipse cx="176" cy="232.9375" fill="#222222" rx="6" ry="6" style="stroke:#222222;stroke-width:1.0;"/><line style="stroke:#181818;stroke-width:1.0;" x1="176" x2="176" y1="30" y2="50"/><polygon fill="#181818" points="172,40,176,50,180,40,176,44" style="stroke:#181818;stroke-width:1.0;"/><line style="stroke:#181818;stroke-width:1.0;" x1="131.5" x2="100.25" y1="115.9688" y2="115.9688"/><line style="stroke:#181818;stroke-width:1.0;" x1="100.25" x2="100.25" y1="115.9688" y2="137.9688"/><polygon fill="#181818" points="96.25,127.9688,100.25,137.9688,104.25,127.9688,100.25,131.9688" style="stroke:#181818;stroke-width:1.0;"/><line style="stroke:#181818;stroke-width:1.0;" x1="220.5" x2="251.75" y1="115.9688" y2="115.9688"/><line style="stroke:#181818;stroke-width:1.0;" x1="251.75" x2="251.75" y1="115.9688" y2="137.9688"/><polygon fill="#181818" points="247.75,127.9688,251.75,137.9688,255.75,127.9688,251.75,131.9688" style="stroke:#181818;stroke-width:1.0;"/><line style="stroke:#181818;stroke-width:1.0;" x1="100.25" x2="100.25" y1="171.9375" y2="189.9375"/><line style="stroke:#181818;stroke-width:1.0;" x1="100.25" x2="164" y1="189.9375" y2="189.9375"/><polygon fill="#181818" points="154,185.9375,164,189.9375,154,193.9375,158,189.9375" style="stroke:#181818;stroke-width:1.0;"/><line style="stroke:#181818;stroke-width:1.0;" x1="251.75" x2="251.75" y1="171.9375" y2="189.9375"/><line style="stroke:#181818;stroke-width:1.0;" x1="251.75" x2="188" y1="189.9375" y2="189.9375"/><polygon fill="#181818" points="198,185.9375,188,189.9375,198,193.9375,194,189.9375" style="stroke:#181818;stroke-width:1.0;"/><line style="stroke:#181818;stroke-width:1.0;" x1="176" x2="176" y1="83.9688" y2="103.9688"/><polygon fill="#181818" points="172,93.9688,176,103.9688,180,93.9688,176,97.9688" style="stroke:#181818;stroke-width:1.0;"/><line style="stroke:#181818;stroke-width:1.0;" x1="176" x2="176" y1="201.9375" y2="221.9375"/><polygon fill="#181818" points="172,211.9375,176,221.9375,180,211.9375,176,215.9375" style="stroke:#181818;stroke-width:1.0;"/><!--SRC=[Aov9B2hXidBEI4tELj18IIn9z4dDIo_9KB1JCD1KSFHpGH6qiLKmDjAqvifCKz0eIyp9J5780KjeAfHafEOfQ4Iw1cjoAIXOQHMb5fVcb2ZOAhZ6-tjRSwNc5ASgQFZvOqZw-OT05EIbPAPn5PVa5m00]--></g></svg>